<?xml version="1.0" encoding="UTF-8"?>
<svg xmlns="http://www.w3.org/2000/svg" id="artwork" width="512" height="512" viewBox="0 0 64 64"><path d="M41,16.5H23a1.5,1.5,0,0,0,0,3H41a1.5,1.5,0,0,0,0-3Z"/><path d="M41,24.5H23a1.5,1.5,0,0,0,0,3H41a1.5,1.5,0,0,0,0-3Z"/><path d="M60.05469,24.57129,48.5,21.7843V13A3.50424,3.50424,0,0,0,45,9.5h-.79688l-1.3916-6.25879A3.47714,3.47714,0,0,0,39.39551.5h-14.791a3.47714,3.47714,0,0,0-3.416,2.74121L19.79688,9.5H19A3.50424,3.50424,0,0,0,15.5,13v8.7843l-11.55469,2.787A4.48734,4.48734,0,0,0,.5,28.94531V59A4.50491,4.50491,0,0,0,5,63.5h8a1.5,1.5,0,0,0,0-3H5A1.50164,1.50164,0,0,1,3.5,59V51.875h6.625a1.5,1.5,0,0,0,0-3H3.5V44.25h6.625a1.5,1.5,0,0,0,0-3H3.5V36.625h6.625a1.5,1.5,0,0,0,0-3H3.5V28.94531a1.49614,1.49614,0,0,1,1.14844-1.458L15.5,24.86993V34a1.5,1.5,0,0,0,3,0V13a.501.501,0,0,1,.5-.5H45a.501.501,0,0,1,.5.5V34a1.5,1.5,0,0,0,3,0V24.86993L59.35156,27.4873A1.49614,1.49614,0,0,1,60.5,28.94531V33.625H53.875a1.5,1.5,0,0,0,0,3H60.5V41.25H53.875a1.5,1.5,0,0,0,0,3H60.5v4.625H53.875a1.5,1.5,0,0,0,0,3H60.5V59A1.50164,1.50164,0,0,1,59,60.5H51a1.5,1.5,0,0,0,0,3h8A4.50491,4.50491,0,0,0,63.5,59V28.94531A4.48734,4.48734,0,0,0,60.05469,24.57129ZM22.87012,9.5l1.24707-5.6084a.49576.49576,0,0,1,.4873-.3916h14.791a.49764.49764,0,0,1,.48828.3916L41.12988,9.5Z"/><path d="M31.78125,52.7002a35.1464,35.1464,0,0,1-15.76532-3.45234V59.388a3.98663,3.98663,0,0,0,3.888,4.07031H44.09607a3.98663,3.98663,0,0,0,3.888-4.07031V49.01721A34.61116,34.61116,0,0,1,31.78125,52.7002Z" style="fill:#3e3ef4"/><path d="M31.78125,49.7002c6.35931,0,12.23828-1.52778,16.20282-4.18653V43.10675a3.98663,3.98663,0,0,0-3.888-4.07031H40.63818a8.008,8.008,0,0,0-7.81048-8.14063H31.1723a8.008,8.008,0,0,0-7.81048,8.14063H19.90393a3.98663,3.98663,0,0,0-3.888,4.07031v2.68756C19.97272,48.2749,25.68555,49.7002,31.78125,49.7002Zm-.609-16.09082h1.6554A5.351,5.351,0,0,1,38.048,39.03644H25.952A5.351,5.351,0,0,1,31.1723,33.60938Z" style="fill:#3e3ef4"/></svg>
