<svg id="artwork" height="512" viewBox="0 0 64 64" width="512" xmlns="http://www.w3.org/2000/svg"><path d="m63.06055 38.93741a9.99756 9.99756 0 0 0 -14.1211 0 1.50062 1.50062 0 0 0 -.43945 1.06059v22a1.50072 1.50072 0 0 0 2.56055 1.06055 6.98565 6.98565 0 0 1 9.8789 0 1.50065 1.50065 0 0 0 2.56055-1.06055v-22a1.50062 1.50062 0 0 0 -.43945-1.06059z" fill="#3e3ef4"/><path d="m30.93945 38.93741a1.50062 1.50062 0 0 0 -.43945 1.06059v22a1.50076 1.50076 0 0 0 2.56055 1.06055 6.98565 6.98565 0 0 1 9.8789 0 1.50112 1.50112 0 0 0 2.56055-1.06055v-22a1.50062 1.50062 0 0 0 -.43945-1.06055 9.99756 9.99756 0 0 0 -14.1211-.00004z" fill="#3e3ef4"/><path d="m61.747 14.20264-27.19923-13.12989a5.97728 5.97728 0 0 0 -5.10645 0l-27.19922 13.12989a3.09782 3.09782 0 0 0 .001 5.57129l6.3291 3.0556v14.80572a4.47382 4.47382 0 0 0 2.48731 4.02442l14.36523 7.18262a1.50018 1.50018 0 0 0 1.3418-2.6836l-14.36623-7.18262a1.49164 1.49164 0 0 1 -.82813-1.34082v-13.35742l3.169 1.53v10.14676a1.5 1.5 0 0 0 3 0v-8.69849l11.70019 5.64869a5.87878 5.87878 0 0 0 5.10645 0l17.87109-8.62726v7.72247a1.5 1.5 0 0 0 3 0v-9.17072l6.3291-3.05535a3.09781 3.09781 0 0 0 -.00101-5.57129zm-28.50391 16.001a2.92565 2.92565 0 0 1 -2.49707 0l-11.08052-5.37332 13.00043-6.49975a1.50018 1.50018 0 0 0 -1.3418-2.6836l-15.064 7.532-12.76513-6.1902c0-.11432-1.10809.49976 27.251-13.21484a2.92218 2.92218 0 0 1 2.49707 0l27.25193 13.21386c0 .11421 1.107-.4992-27.25192 13.21582z"/></svg>