<svg id="artwork" height="512" viewBox="0 0 64 64" width="512" xmlns="http://www.w3.org/2000/svg"><g fill="#3e3ef4"><path d="m15.99121 44.52637 15-13.63623a1.4986 1.4986 0 0 1 2.01758 0l15 13.63623a1.5014 1.5014 0 0 1 -1.00879 2.61035h-30a1.50143 1.50143 0 0 1 -1.00879-2.61035z"/><path d="m28.5 56.137h7v7.363h-7z"/><path d="m18.5 50.13672v11.86328a1.50007 1.50007 0 0 0 1.5 1.5h5.5v-8.86328a1.50007 1.50007 0 0 1 1.5-1.5h10a1.50007 1.50007 0 0 1 1.5 1.5v8.86328h5.5a1.50007 1.50007 0 0 0 1.5-1.5v-11.86328z"/></g><path d="m29.5 13a12.5 12.5 0 1 0 -18.82281 10.76447 16.52233 16.52233 0 0 0 -10.17719 15.23553v23a1.50039 1.50039 0 0 0 1.5 1.5h12a1.5 1.5 0 0 0 0-3h-10.5v-21.5a13.48614 13.48614 0 0 1 22.793-9.77393 1.5003 1.5003 0 0 0 2.06836-2.17382 16.53652 16.53652 0 0 0 -5.04474-3.284 12.49508 12.49508 0 0 0 6.18338-10.76825zm-12.5 9.5a9.5 9.5 0 1 1 9.5-9.5 9.51081 9.51081 0 0 1 -9.5 9.5z"/><path d="m53.32281 23.76447a12.4999 12.4999 0 1 0 -12.6394.00378 16.53652 16.53652 0 0 0 -5.04474 3.284 1.5003 1.5003 0 0 0 2.06833 2.17382 13.48614 13.48614 0 0 1 22.793 9.77393v21.5h-10.5a1.5 1.5 0 0 0 0 3h12a1.50038 1.50038 0 0 0 1.5-1.5v-23a16.52233 16.52233 0 0 0 -10.17719-15.23553zm-15.82281-10.76447a9.5 9.5 0 1 1 9.5 9.5 9.51081 9.51081 0 0 1 -9.5-9.5z"/></svg>