<svg id="artwork" height="512" viewBox="0 0 64 64" width="512" xmlns="http://www.w3.org/2000/svg"><path d="m15.5 33.5a15 15 0 1 0 15 15 15.017 15.017 0 0 0 -15-15zm0 27a12 12 0 1 1 12-12 12.01375 12.01375 0 0 1 -12 12z"/><path d="m19.74268 52.74268a6.00787 6.00787 0 0 1 -8.48536 0 1.49984 1.49984 0 1 0 -2.12109 2.12109 9.00965 9.00965 0 0 0 12.72754 0 1.49984 1.49984 0 1 0 -2.12109-2.12109z"/><path d="m48.5 33.5a15 15 0 1 0 15 15 15.017 15.017 0 0 0 -15-15zm0 27a12 12 0 1 1 12-12 12.01375 12.01375 0 0 1 -12 12z"/><path d="m52.74268 52.74268a6.00787 6.00787 0 0 1 -8.48536 0 1.49984 1.49984 0 0 0 -2.12109 2.12109 9.00965 9.00965 0 0 0 12.72754 0 1.49984 1.49984 0 0 0 -2.12109-2.12109z"/><path d="m32 .5a16.5 16.5 0 1 0 16.5 16.5 16.51868 16.51868 0 0 0 -16.5-16.5zm7.42432 23.92432a10.50916 10.50916 0 0 1 -14.84864 0 1.49984 1.49984 0 0 1 2.1211-2.1211 7.51023 7.51023 0 0 0 10.60644 0 1.49984 1.49984 0 0 1 2.1211 2.1211z" fill="#ffffff"/></svg>