<?xml version="1.0" encoding="UTF-8"?>
<svg xmlns="http://www.w3.org/2000/svg" id="artwork" width="512" height="512" viewBox="0 0 64 64"><path d="M17.81006,29.33887,16,26.0293l-1.813,3.31445a2.09847,2.09847,0,0,1-.84814.8457L10.0293,32l3.31445,1.8125a2.10687,2.10687,0,0,1,.84619.84863L16,37.9707l1.813-3.31445a2.09847,2.09847,0,0,1,.84814-.8457L21.9707,32l-3.31445-1.8125A2.10687,2.10687,0,0,1,17.81006,29.33887Z" style="fill:#3e3ef4"/><path d="M16,17A15,15,0,1,0,31,32,15,15,0,0,0,16,17Zm8.81885,16.86133-4.49756,2.46-2.45947,4.49707a2.124,2.124,0,0,1-3.72364.001l-2.45947-4.498-4.49707-2.459a2.12345,2.12345,0,0,1-.00049-3.72363l4.49756-2.46,2.45947-4.49707a2.124,2.124,0,0,1,3.72364-.001v.001l2.45947,4.49707,4.49707,2.459A2.12345,2.12345,0,0,1,24.81885,33.86133Z" style="fill:#3e3ef4"/><path d="M63,20.49994a4.8215,4.8215,0,0,0-6.6626-4.46564V13a5.35067,5.35067,0,0,0-5.20166-5.47656,4.947,4.947,0,0,0-2.20166.522V5.97656A5.35027,5.35027,0,0,0,43.73291.5a5.27414,5.27414,0,0,0-5.066,4.253,4.95307,4.95307,0,0,0-2.33728-.59088,5.35092,5.35092,0,0,0-5.20166,5.47754V13.022a4.947,4.947,0,0,0-2.20166-.522,5.17237,5.17237,0,0,0-4.53516,2.793A1.49986,1.49986,0,1,0,27.03662,16.707,2.153,2.153,0,0,1,28.92627,15.5a2.35427,2.35427,0,0,1,2.20166,2.47656V24a1.5,1.5,0,0,0,3,0V9.63965a2.217,2.217,0,1,1,4.40332,0V29.15039a1.5,1.5,0,0,0,3,0V5.97656a2.2167,2.2167,0,1,1,4.40283,0V29.15039a1.5,1.5,0,1,0,3,0V13a2.21692,2.21692,0,1,1,4.40332,0V29.02441a6.67147,6.67147,0,0,1-3.99219,4.56153A8.16107,8.16107,0,0,0,44.58838,41a1.5,1.5,0,0,0,3,0,5.15138,5.15138,0,0,1,3.001-4.68359,9.55549,9.55549,0,0,0,5.73584-6.97559A2.51955,2.51955,0,0,0,56.3374,29V20.49811a1.83142,1.83142,0,0,1,3.66284.00183L60,20.5V36.70508a6.063,6.063,0,0,1-1.021,3.373L53.58887,48.168A1.50327,1.50327,0,0,0,53.3374,49V59a1.50164,1.50164,0,0,1-1.5,1.5h-19.749a1.50164,1.50164,0,0,1-1.5-1.5V52.1748a5.0551,5.0551,0,0,0-1.41846-3.51953l-.00165-.00116a5.07487,5.07487,0,0,0-1.32208-.98614,2.06438,2.06438,0,0,1-.69238-.58008A1.50008,1.50008,0,1,0,24.772,48.91211a5.01921,5.01921,0,0,0,1.69385,1.41894,2.11829,2.11829,0,0,1,.54187.40406l.00012.00024a2.06544,2.06544,0,0,1,.58057,1.43945V59a4.50491,4.50491,0,0,0,4.5,4.5h19.749a4.50491,4.50491,0,0,0,4.5-4.5V49.4541l5.13867-7.71191A9.05947,9.05947,0,0,0,63,36.70508V20.49994Z"/></svg>
