<svg id="Layer_1" data-name="Layer 1" xmlns="http://www.w3.org/2000/svg" viewBox="0 0 491.9 89.62"><title>light-6</title><path d="M37.29,181.34c-9.48,9.48-25.53,9.44-30-3.19a54.6,54.6,0,1,1,102.93,0c-4.49,12.63-20.54,12.67-30,3.19L65.57,166.71c-1.4-1.4-1.25-3.7-.87-5.64a6,6,0,0,0-.34-3.51,6.08,6.08,0,0,0-11.58,3.51c.39,1.94.53,4.24-.86,5.64Z" transform="translate(-4.13 -105.28)" style="fill:#fff"/><path d="M157.78,168.23h14.68v8.65H146.57v-46h11.21Z" transform="translate(-4.13 -105.28)" style="fill:#fff"/><path d="M192.48,177.4a20.39,20.39,0,0,1-9.7-2.29,17.07,17.07,0,0,1-6.75-6.55,19.86,19.86,0,0,1-2.42-10,19.26,19.26,0,0,1,2.49-9.9,16.88,16.88,0,0,1,6.81-6.62,21.69,21.69,0,0,1,19.4,0,16.84,16.84,0,0,1,6.82,6.62,20.79,20.79,0,0,1-.07,19.86,16.83,16.83,0,0,1-6.88,6.55A20.37,20.37,0,0,1,192.48,177.4Zm0-9.69a7.2,7.2,0,0,0,5.44-2.36q2.29-2.37,2.29-6.75T198,151.85a7,7,0,0,0-5.38-2.36,7.06,7.06,0,0,0-5.44,2.36Q185,154.14,185,158.6t2.1,6.75A7,7,0,0,0,192.48,167.71Z" transform="translate(-4.13 -105.28)" style="fill:#fff"/><path d="M229.49,139.79a13.85,13.85,0,0,1,6.75,1.57,11.62,11.62,0,0,1,4.52,4.13v-5.18H252v36.5a20,20,0,0,1-2,9.11,14.93,14.93,0,0,1-6.09,6.56,19.59,19.59,0,0,1-10.16,2.42c-5.41,0-9.81-1.29-13.17-3.87a14.36,14.36,0,0,1-5.77-10.35h11.08a5.2,5.2,0,0,0,2.49,3.28,8.9,8.9,0,0,0,4.85,1.24,7.41,7.41,0,0,0,5.5-2q2.1-2,2.1-6.36v-5.17a12.7,12.7,0,0,1-4.52,4.19,13.85,13.85,0,0,1-6.75,1.57,15.1,15.1,0,0,1-8.19-2.29,16.53,16.53,0,0,1-5.83-6.62,22.51,22.51,0,0,1-2.1-10,22.08,22.08,0,0,1,2.1-9.89,16.09,16.09,0,0,1,5.83-6.56A15.1,15.1,0,0,1,229.49,139.79Zm11.27,18.81A9.1,9.1,0,0,0,238.4,152a7.45,7.45,0,0,0-5.63-2.43,7.68,7.68,0,0,0-5.71,2.43,9,9,0,0,0-2.29,6.55,9.48,9.48,0,0,0,2.29,6.69,7.71,7.71,0,0,0,5.71,2.42,7.47,7.47,0,0,0,5.63-2.42A9.12,9.12,0,0,0,240.76,158.6Z" transform="translate(-4.13 -105.28)" style="fill:#fff"/><path d="M274.75,177.4a20.39,20.39,0,0,1-9.7-2.29,17.07,17.07,0,0,1-6.75-6.55,19.86,19.86,0,0,1-2.42-10,19.26,19.26,0,0,1,2.49-9.9,16.88,16.88,0,0,1,6.81-6.62,21.69,21.69,0,0,1,19.4,0,16.9,16.9,0,0,1,6.82,6.62,20.79,20.79,0,0,1-.07,19.86,16.83,16.83,0,0,1-6.88,6.55A20.37,20.37,0,0,1,274.75,177.4Zm0-9.69a7.22,7.22,0,0,0,5.44-2.36q2.3-2.37,2.29-6.75t-2.22-6.75a7.38,7.38,0,0,0-10.82,0q-2.16,2.29-2.16,6.75t2.1,6.75A7,7,0,0,0,274.75,167.71Z" transform="translate(-4.13 -105.28)" style="fill:#fff"/><path d="M303.5,136.51a7,7,0,0,1-4.85-1.7,5.79,5.79,0,0,1-1.83-4.33,5.66,5.66,0,0,1,1.83-4.32,6.83,6.83,0,0,1,4.85-1.77,6.52,6.52,0,0,1,4.72,1.77,5.55,5.55,0,0,1,1.9,4.32,5.67,5.67,0,0,1-1.9,4.33A6.64,6.64,0,0,1,303.5,136.51Zm5.57,3.8v36.57h-11.2V140.31Z" transform="translate(-4.13 -105.28)" style="fill:#fff"/><path d="M326.43,145.49a12.21,12.21,0,0,1,4.52-4.13,13.91,13.91,0,0,1,6.75-1.57,15.1,15.1,0,0,1,8.19,2.29,15.69,15.69,0,0,1,5.77,6.56,21.57,21.57,0,0,1,2.16,9.89,22,22,0,0,1-2.16,10,16.11,16.11,0,0,1-5.77,6.62,15.1,15.1,0,0,1-8.19,2.29,14.13,14.13,0,0,1-6.75-1.57,12.38,12.38,0,0,1-4.52-4.06v22.54h-11.2v-54h11.2Zm16,13a8.87,8.87,0,0,0-2.36-6.55,7.52,7.52,0,0,0-5.7-2.43,7.65,7.65,0,0,0-5.7,2.43,10.71,10.71,0,0,0,0,13.24,7.92,7.92,0,0,0,11.4,0A9.34,9.34,0,0,0,342.42,158.53Z" transform="translate(-4.13 -105.28)" style="fill:#fff"/><path d="M372.61,177.4a21.06,21.06,0,0,1-8.52-1.63,14.81,14.81,0,0,1-5.9-4.46,11.93,11.93,0,0,1-2.42-6.42h11.08a4.29,4.29,0,0,0,1.76,3.08,6.31,6.31,0,0,0,3.87,1.18,5.47,5.47,0,0,0,3.21-.79,2.57,2.57,0,0,0,1.18-2.16,2.4,2.4,0,0,0-1.64-2.29,29.55,29.55,0,0,0-5.31-1.71,53,53,0,0,1-6.55-1.9,11.87,11.87,0,0,1-4.52-3.21,8.86,8.86,0,0,1-1.9-6,10.07,10.07,0,0,1,1.7-5.7,11.85,11.85,0,0,1,5.11-4.13,19.75,19.75,0,0,1,8.06-1.51q6.89,0,10.82,3.41a13.24,13.24,0,0,1,4.59,9H376.87a4.38,4.38,0,0,0-1.7-3,5.62,5.62,0,0,0-3.67-1.12,4.94,4.94,0,0,0-3,.79,2.32,2.32,0,0,0-1,2,2.51,2.51,0,0,0,1.63,2.36,27.73,27.73,0,0,0,5.25,1.57,52.45,52.45,0,0,1,6.61,2.1,10.71,10.71,0,0,1,4.46,3.28,9,9,0,0,1,2,6,9.65,9.65,0,0,1-1.83,5.77,11.78,11.78,0,0,1-5.18,3.93A19.6,19.6,0,0,1,372.61,177.4Z" transform="translate(-4.13 -105.28)" style="fill:#fff"/><path d="M428.42,140.31v36.57H417.21v-5a12.42,12.42,0,0,1-4.65,3.93,14.15,14.15,0,0,1-6.42,1.44,14.7,14.7,0,0,1-7.41-1.83,12.82,12.82,0,0,1-5-5.44,18.38,18.38,0,0,1-1.77-8.32V140.31h11.14v19.86a8,8,0,0,0,1.9,5.7,7.53,7.53,0,0,0,10.29,0,8,8,0,0,0,1.9-5.7V140.31Z" transform="translate(-4.13 -105.28)" style="fill:#fff"/><path d="M481.16,139.92q6.81,0,10.81,4.13T496,155.52v21.36H484.9V157a7.33,7.33,0,0,0-1.91-5.43,6.6,6.6,0,0,0-5.11-2,6.81,6.81,0,0,0-5.17,2,7.47,7.47,0,0,0-1.84,5.43v19.86H459.73V157a7.33,7.33,0,0,0-1.9-5.43,6.62,6.62,0,0,0-5.11-2,6.85,6.85,0,0,0-5.18,2,7.51,7.51,0,0,0-1.83,5.43v19.86H434.5V140.31h11.21v4.59a11.63,11.63,0,0,1,4.45-3.6,13.72,13.72,0,0,1,6.23-1.38,15,15,0,0,1,7.34,1.77,12.61,12.61,0,0,1,5.11,5.05,14.75,14.75,0,0,1,5.18-4.92A13.93,13.93,0,0,1,481.16,139.92Z" transform="translate(-4.13 -105.28)" style="fill:#fff"/></svg>