<svg id="Layer_1" data-name="Layer 1" xmlns="http://www.w3.org/2000/svg" viewBox="0 0 495.23 123.01"><title>light-9</title><path d="M2.3,180.84v-61.5l30.76,17.08v27.51l24.6,13.84,24.6-13.84V136.42L113,119.34v61.5L57.66,211.6Z" transform="translate(-2.3 -88.58)" style="fill:#fff"/><path d="M17.68,127.88,2.3,119.34,57.66,88.58,113,119.34l-15.38,8.54v45.27l-40,23.07-40-23.07Zm78.3.92-13.72,7.62v-.17l-24.6-13.84-24.6,13.84v.17L19.35,128.8v43.41l38.31,22.1L96,172.21Z" transform="translate(-2.3 -88.58)" style="fill:#fff;fill-rule:evenodd"/><path d="M142.49,176V124.32h9.75v42.8h23.61V176Z" transform="translate(-2.3 -88.58)" style="fill:#fff"/><path d="M196.89,177a21.34,21.34,0,0,1-9.82-2.22,16.65,16.65,0,0,1-6.86-6.42,19.42,19.42,0,0,1-2.51-10.11v-1.18A19.39,19.39,0,0,1,180.21,147a16.61,16.61,0,0,1,6.86-6.43,22.92,22.92,0,0,1,19.64,0,16.61,16.61,0,0,1,6.86,6.43,19.39,19.39,0,0,1,2.51,10.11v1.18a19.42,19.42,0,0,1-2.51,10.11,16.65,16.65,0,0,1-6.86,6.42A21.34,21.34,0,0,1,196.89,177Zm0-8.27A9.74,9.74,0,0,0,204,166q2.81-2.81,2.81-8v-.74q0-5.17-2.81-7.9a9.44,9.44,0,0,0-7.08-2.8,9.62,9.62,0,0,0-7.09,2.8q-2.81,2.73-2.8,7.9v.74q0,5.16,2.8,8A9.76,9.76,0,0,0,196.89,168.75Z" transform="translate(-2.3 -88.58)" style="fill:#fff"/><path d="M219.57,157.83v-1.19a19.63,19.63,0,0,1,2.29-9.81,15.79,15.79,0,0,1,6-6.28,16.47,16.47,0,0,1,8.34-2.21q5,0,7.6,1.77a12.77,12.77,0,0,1,3.77,3.69H249v-4.43h9.15v43.11a8.08,8.08,0,0,1-2.22,6,7.83,7.83,0,0,1-5.9,2.28h-24.5v-8.11h21.25q2.07,0,2.07-2.22v-9.52h-1.33a12.19,12.19,0,0,1-2.07,2.43,10.78,10.78,0,0,1-3.54,2,16.56,16.56,0,0,1-5.61.81,16.81,16.81,0,0,1-8.34-2.14,16.51,16.51,0,0,1-6-6.27A20.11,20.11,0,0,1,219.57,157.83ZM238.91,168a10,10,0,0,0,7.16-2.73q2.88-2.73,2.88-7.68v-.73q0-5-2.88-7.68a9.85,9.85,0,0,0-7.16-2.73,10,10,0,0,0-7.16,2.73q-2.88,2.66-2.88,7.68v.73q0,5,2.88,7.68A10,10,0,0,0,238.91,168Z" transform="translate(-2.3 -88.58)" style="fill:#fff"/><path d="M282.51,177a21.31,21.31,0,0,1-9.82-2.22,16.65,16.65,0,0,1-6.86-6.42,19.32,19.32,0,0,1-2.51-10.11v-1.18A19.3,19.3,0,0,1,265.83,147a16.61,16.61,0,0,1,6.86-6.43,22.9,22.9,0,0,1,19.63,0,16.57,16.57,0,0,1,6.87,6.43,19.39,19.39,0,0,1,2.51,10.11v1.18a19.42,19.42,0,0,1-2.51,10.11,16.61,16.61,0,0,1-6.87,6.42A21.27,21.27,0,0,1,282.51,177Zm0-8.27a9.74,9.74,0,0,0,7.08-2.73q2.81-2.81,2.81-8v-.74q0-5.17-2.81-7.9a9.44,9.44,0,0,0-7.08-2.8,9.6,9.6,0,0,0-7.09,2.8q-2.81,2.73-2.8,7.9v.74q0,5.16,2.8,8A9.75,9.75,0,0,0,282.51,168.75Z" transform="translate(-2.3 -88.58)" style="fill:#fff"/><path d="M307,176V139.37h9.3V176Zm4.65-40.89a6.12,6.12,0,0,1-4.28-1.62,6.24,6.24,0,0,1,0-8.56,6.08,6.08,0,0,1,4.28-1.63,5.92,5.92,0,0,1,4.28,1.63,6.24,6.24,0,0,1,0,8.56A6,6,0,0,1,311.61,135.09Z" transform="translate(-2.3 -88.58)" style="fill:#fff"/><path d="M323.24,190.74V139.37h9.16v4.43h1.33a10.9,10.9,0,0,1,3.91-3.76q2.66-1.69,7.6-1.7a15.93,15.93,0,0,1,8.19,2.21,15.73,15.73,0,0,1,6.05,6.35,21,21,0,0,1,2.29,10.19v1.18a21,21,0,0,1-2.29,10.18A15.69,15.69,0,0,1,345.24,177a16.87,16.87,0,0,1-5.61-.82,10.71,10.71,0,0,1-3.61-1.92,13.67,13.67,0,0,1-2.15-2.5h-1.33v19Zm19.19-21.84a9.81,9.81,0,0,0,7.16-2.73q2.88-2.8,2.88-8.12v-.74c0-3.54-1-6.23-2.88-8.05a10.54,10.54,0,0,0-14.31,0c-1.92,1.82-2.88,4.51-2.88,8.05v.74q0,5.31,2.88,8.12A10,10,0,0,0,342.43,168.9Z" transform="translate(-2.3 -88.58)" style="fill:#fff"/><path d="M382.19,177q-7.15,0-11.73-3.1a12.76,12.76,0,0,1-5.54-8.86l8.57-2.22a9.34,9.34,0,0,0,1.69,4.06,7.23,7.23,0,0,0,3,2.14,12.81,12.81,0,0,0,4,.59,8.3,8.3,0,0,0,4.8-1.1,3.51,3.51,0,0,0,1.55-2.88,2.84,2.84,0,0,0-1.47-2.58,13.43,13.43,0,0,0-4.73-1.55l-2.06-.37a39.72,39.72,0,0,1-7-2,13.12,13.12,0,0,1-5.09-3.61,8.9,8.9,0,0,1-1.92-5.91,9.65,9.65,0,0,1,4-8.34q4-3,10.48-2.95a17.84,17.84,0,0,1,10.18,2.73,12.6,12.6,0,0,1,5.32,7.16l-8.64,2.66a5.9,5.9,0,0,0-2.43-4,7.8,7.8,0,0,0-4.43-1.18,7.19,7.19,0,0,0-4.06,1,2.82,2.82,0,0,0-1.4,2.51,2.91,2.91,0,0,0,1.47,2.66,13.13,13.13,0,0,0,4,1.25l2.06.37a42.26,42.26,0,0,1,7.46,2,11.91,11.91,0,0,1,5.32,3.47,8.77,8.77,0,0,1,2,6,10.57,10.57,0,0,1-4.21,8.94Q389.22,177,382.19,177Z" transform="translate(-2.3 -88.58)" style="fill:#fff"/><path d="M416.32,176.57a14.48,14.48,0,0,1-7.52-1.92,13.62,13.62,0,0,1-4.95-5.46,17.29,17.29,0,0,1-1.77-8V139.37h9.3v21.11c0,2.76.67,4.82,2,6.2a7.89,7.89,0,0,0,5.84,2.07,8.22,8.22,0,0,0,6.64-2.81q2.36-2.87,2.36-8v-18.6h9.3V176h-9.15v-4.8H427a10.19,10.19,0,0,1-3.32,3.62Q421.27,176.57,416.32,176.57Z" transform="translate(-2.3 -88.58)" style="fill:#fff"/><path d="M444.54,176V139.37h9.15v4H455a8.25,8.25,0,0,1,3.17-3.18,10.82,10.82,0,0,1,5.83-1.4,11.34,11.34,0,0,1,6.28,1.55,9.9,9.9,0,0,1,3.61,3.91h1.33a11,11,0,0,1,3.54-3.91,11.56,11.56,0,0,1,6.5-1.55,12.66,12.66,0,0,1,6.13,1.48,10.19,10.19,0,0,1,4.42,4.35,14.25,14.25,0,0,1,1.7,7.31V176h-9.3v-23.4a5.41,5.41,0,0,0-5.9-6.05,6.16,6.16,0,0,0-4.95,2.07,8.66,8.66,0,0,0-1.7,5.76V176h-9.3v-23.4a5.4,5.4,0,0,0-5.9-6.05,6.17,6.17,0,0,0-5,2.07,8.66,8.66,0,0,0-1.69,5.76V176Z" transform="translate(-2.3 -88.58)" style="fill:#fff"/></svg>