<svg id="Layer_1" data-name="Layer 1" xmlns="http://www.w3.org/2000/svg" viewBox="0 0 494.33 91.64"><title>light-2</title><path d="M121.9,108.21h12.35v67.32h20.3v11.22H121.9Z" transform="translate(-2.75 -104.27)" style="fill:#fff"/><path d="M177.87,187.87q-9.09,0-13.91-5.16t-4.82-14.59V126.83q0-9.42,4.82-14.58t13.91-5.16q9.09,0,13.92,5.16t4.82,14.58v41.29q0,9.42-4.82,14.59T177.87,187.87Zm0-11.22q6.4,0,6.4-7.74V126.05q0-7.74-6.4-7.75t-6.39,7.75v42.86Q171.48,176.65,177.87,176.65Z" transform="translate(-2.75 -104.27)" style="fill:#fff"/><path d="M222.46,187.87q-9,0-13.69-5.05t-4.71-14.7V126.83q0-9.54,4.71-14.58t13.69-5.16q9,0,13.69,5.16t4.71,14.58v6.73H229.19v-7.51q0-7.74-6.39-7.75t-6.4,7.75v43q0,7.62,6.4,7.63t6.39-7.63V153.65H223V142.43h17.84v25.69q0,9.54-4.71,14.7T222.46,187.87Z" transform="translate(-2.75 -104.27)" style="fill:#fff"/><path d="M266.62,187.87q-9.09,0-13.91-5.16t-4.82-14.59V126.83q0-9.42,4.82-14.58t13.91-5.16q9.09,0,13.92,5.16t4.82,14.58v41.29q0,9.42-4.82,14.59T266.62,187.87Zm0-11.22q6.4,0,6.4-7.74V126.05q0-7.74-6.4-7.75t-6.39,7.75v42.86Q260.23,176.65,266.62,176.65Z" transform="translate(-2.75 -104.27)" style="fill:#fff"/><path d="M293.73,108.21h12.34v78.54H293.73Z" transform="translate(-2.75 -104.27)" style="fill:#fff"/><path d="M315.31,108.21h18.18q9.19,0,13.8,4.93t4.6,14.48v7.74q0,9.54-4.6,14.47t-13.8,4.94h-5.83v32H315.31Zm18.18,35.34a5.63,5.63,0,0,0,4.49-1.68c1-1.13,1.57-3,1.57-5.73v-9.31q0-4-1.57-5.72a5.63,5.63,0,0,0-4.49-1.68h-5.83v24.12Z" transform="translate(-2.75 -104.27)" style="fill:#fff"/><path d="M375.08,187.87q-9,0-13.58-5.05t-4.6-14.7v-4.49h11.67V169q0,7.62,6.39,7.63a5.93,5.93,0,0,0,4.72-1.8q1.68-1.9,1.68-6.06a16.4,16.4,0,0,0-2.24-8.64q-2.25-3.81-8.31-9.08-7.62-6.73-10.66-12.12a25.25,25.25,0,0,1-3-12.34q0-9.31,4.71-14.36t13.69-5.16q8.85,0,13.35,5.16t4.6,14.58v3.26H381.81v-4c0-2.7-.52-4.64-1.57-5.84a5.62,5.62,0,0,0-4.6-1.91q-6.18,0-6.17,7.52a15.18,15.18,0,0,0,2.24,8q2.35,3.71,8.42,9,7.74,6.74,10.66,12.23a27.23,27.23,0,0,1,2.91,12.91q0,9.65-4.82,14.81T375.08,187.87Z" transform="translate(-2.75 -104.27)" style="fill:#fff"/><path d="M418.73,187.87q-9,0-13.69-5.05t-4.71-14.7V108.21h12.34V169c0,2.69.52,4.64,1.57,5.83a6.14,6.14,0,0,0,4.71,1.8,5.77,5.77,0,0,0,4.6-1.8c1.13-1.19,1.69-3.14,1.69-5.83V108.21h11.89v59.91q0,9.54-4.71,14.7T418.73,187.87Z" transform="translate(-2.75 -104.27)" style="fill:#fff"/><path d="M497.08,186.75H485.41V127.28h-.22l-9,59.47H465.89l-9-59.47h-.22v59.47H445.92V108.21h17.62l7.85,56.21h.22l7.86-56.21h17.61" transform="translate(-2.75 -104.27)" style="fill:#fff"/><path d="M2.75,151a8.25,8.25,0,1,1,0,16.49" transform="translate(-2.75 -104.27)" style="fill:#726bea"/><path d="M2.75,186.75a27.5,27.5,0,0,0,0-55" transform="translate(-2.75 -104.27)" style="fill:#fff"/><path d="M61.5,195.91A19.7,19.7,0,0,1,94.39,175V140.93a49.27,49.27,0,0,0-64.15,47,50.46,50.46,0,0,0,.65,8" transform="translate(-2.75 -104.27)" style="fill:#fff"/><path d="M60.07,104.27a12.38,12.38,0,0,1-23,0" transform="translate(-2.75 -104.27)" style="fill:#fff"/><path d="M7.59,104.27a41.24,41.24,0,0,0,82,0" transform="translate(-2.75 -104.27)" style="fill:#fff"/></svg>