<svg id="Layer_1" data-name="Layer 1" xmlns="http://www.w3.org/2000/svg" viewBox="0 0 493.19 116.63"><title>light-7</title><path d="M152.54,176.33h34.85v-10.5H164.92V126.3H152.54Z" transform="translate(-3.32 -91.77)" style="fill:#fff"/><path d="M208,169.33c-5,0-7.55-4.34-7.55-10.84s2.59-10.92,7.55-10.92,7.63,4.41,7.63,10.92S213,169.33,208,169.33Zm.07,8.12c11.55,0,19.11-8.19,19.11-19s-7.56-19-19.11-19-19.17,8.19-19.17,19S196.63,177.45,208.1,177.45Z" transform="translate(-3.32 -91.77)" style="fill:#fff"/><path d="M247.19,188.72c5.32,0,10-1.19,13.16-4,2.87-2.59,4.76-6.51,4.76-11.9V140.5H254.19v3.85h-.14c-2.1-3-5.32-4.9-10.07-4.9-8.89,0-15,7.42-15,17.92,0,11,7.49,17,15.54,17a11.42,11.42,0,0,0,9.16-4.13h.28v3.57c0,4.34-2,6.86-6.85,6.86-3.78,0-5.67-1.61-6.3-3.5H229.7C230.82,184.66,237.33,188.72,247.19,188.72Zm-.06-22.82c-4.27,0-7.07-3.49-7.07-8.88s2.8-9,7.07-9c4.75,0,7.27,4.06,7.27,8.89C254.4,162,252.09,165.9,247.13,165.9Z" transform="translate(-3.32 -91.77)" style="fill:#fff"/><path d="M287.56,169.33c-5,0-7.56-4.34-7.56-10.84s2.59-10.92,7.56-10.92,7.62,4.41,7.62,10.92S292.52,169.33,287.56,169.33Zm.07,8.12c11.54,0,19.1-8.19,19.1-19s-7.56-19-19.1-19-19.18,8.19-19.18,19S276.15,177.45,287.63,177.45Z" transform="translate(-3.32 -91.77)" style="fill:#fff"/><path d="M310.06,176.33h11.41V140.5H310.06Zm0-40.8h11.41V126.3H310.06Z" transform="translate(-3.32 -91.77)" style="fill:#fff"/><path d="M326.42,188.16h11.4V172.62H338a11.93,11.93,0,0,0,10.15,4.83c9.38,0,15.61-7.42,15.61-19,0-10.78-5.81-19-15.33-19a13,13,0,0,0-10.85,5.39h-.21V140.5H326.42Zm18.75-19.53c-4.9,0-7.7-4-7.7-9.79S340,148.62,345,148.62s7.21,4.06,7.21,10.22S349.51,168.63,345.17,168.63Z" transform="translate(-3.32 -91.77)" style="fill:#fff"/><path d="M382.29,177.45c9.37,0,16.3-4.06,16.3-11.9,0-9.16-7.42-10.77-13.71-11.82-4.55-.84-8.61-1.19-8.61-3.71,0-2.24,2.17-3.29,5-3.29,3.15,0,5.31,1,5.73,4.2h10.5c-.56-7.07-6-11.48-16.16-11.48-8.47,0-15.47,3.92-15.47,11.48,0,8.4,6.65,10.08,12.88,11.13,4.76.84,9.09,1.19,9.09,4.4,0,2.31-2.16,3.57-5.59,3.57-3.78,0-6.16-1.75-6.58-5.32H364.86C365.21,172.62,371.79,177.45,382.29,177.45Z" transform="translate(-3.32 -91.77)" style="fill:#fff"/><path d="M414.09,177.38a12.24,12.24,0,0,0,10.7-5.46H425v4.41h10.92V140.5H424.51v20c0,4.26-2.38,7.2-6.3,7.2-3.63,0-5.38-2.17-5.38-6.08V140.5H401.49V164C401.49,172,405.83,177.38,414.09,177.38Z" transform="translate(-3.32 -91.77)" style="fill:#fff"/><path d="M440.88,176.33h11.41V156.25c0-4.27,2.1-7.28,5.67-7.28s5,2.24,5,6.09v21.27H474.4V156.25c0-4.27,2-7.28,5.67-7.28,3.43,0,5,2.24,5,6.09v21.27h11.4V153c0-8.05-4.05-13.58-12.17-13.58a12.75,12.75,0,0,0-11.27,6.3h-.14a10.73,10.73,0,0,0-10.08-6.3A12,12,0,0,0,452,145.61h-.21V140.5H440.88Z" transform="translate(-3.32 -91.77)" style="fill:#fff"/><path d="M61.64,208.4A58.32,58.32,0,1,0,3.32,150.09,58.31,58.31,0,0,0,61.64,208.4Zm9-71.57a12.73,12.73,0,1,0-18,0l9,9Zm4.26,22.26a12.73,12.73,0,1,0,0-18l-9,9Zm-4.26,22.26a12.73,12.73,0,0,0,0-18l-9-9-9,9a12.73,12.73,0,0,0,18,18ZM30.37,159.09a12.73,12.73,0,1,1,18-18l9,9-9,9A12.74,12.74,0,0,1,30.37,159.09Z" transform="translate(-3.32 -91.77)" style="fill:#fff;fill-rule:evenodd"/></svg>