<svg id="Layer_1" data-name="Layer 1" xmlns="http://www.w3.org/2000/svg" viewBox="0 0 493.21 134.45"><title>light-1</title><path d="M163,126a12.21,12.21,0,0,0-1.1-5.91q-1.11-2-4.41-2h-1.58V116.5H163a9.27,9.27,0,0,1,4.33.79,4.19,4.19,0,0,1,2.13,2.68,21.09,21.09,0,0,1,.63,6v39.4h28v3.15H163Z" transform="translate(-3.31 -82.86)" style="fill:#fff"/><path d="M216,169.3a16.85,16.85,0,0,1-9.29-2.53,16.51,16.51,0,0,1-6-7,24.31,24.31,0,0,1,0-19.54,16,16,0,0,1,6-6.93,17.91,17.91,0,0,1,18.59,0,16.07,16.07,0,0,1,6,6.93,24.31,24.31,0,0,1,0,19.54,16.58,16.58,0,0,1-6,7A16.88,16.88,0,0,1,216,169.3Zm0-3.16a7.16,7.16,0,0,0,5.12-2.12,13.32,13.32,0,0,0,3.47-5.83,27.28,27.28,0,0,0,0-16.39,13.2,13.2,0,0,0-3.47-5.83,7.13,7.13,0,0,0-5.12-2.13,7.44,7.44,0,0,0-5.2,2.13,14.29,14.29,0,0,0-3.46,5.83,28.81,28.81,0,0,0,0,16.39,14.43,14.43,0,0,0,3.46,5.83A7.47,7.47,0,0,0,216,166.14Z" transform="translate(-3.31 -82.86)" style="fill:#fff"/><path d="M253.91,184.27q-7.95,0-12.68-2.92t-4.65-9.3a9.05,9.05,0,0,1,2.44-6.3,14.34,14.34,0,0,1,6.23-3.94c-2.1-1.16-3.16-2.73-3.16-4.73a3.77,3.77,0,0,1,.71-2.44,12.59,12.59,0,0,1,2-1.89,10.78,10.78,0,0,1-4.25-3.94,11.71,11.71,0,0,1-1.66-6.3q0-11.82,15-11.82h14.58v2l-5.12.78v.4a10.26,10.26,0,0,1,3.94,3.54,8.62,8.62,0,0,1,1.57,5.13q0,11.82-15,11.81-8.26,0-8.27,2.76t8.27,2.76q7.65,0,12.45,3.07a10,10,0,0,1,4.89,9.14q0,6.39-4.73,9.3T253.91,184.27Zm0-32.7a7.67,7.67,0,0,0,5.68-2.13q2.21-2.2,2.2-6.93,0-4.5-2.2-6.78a7.4,7.4,0,0,0-5.68-2.29,7.79,7.79,0,0,0-5.75,2.21c-1.42,1.42-2.13,3.7-2.13,6.86s.71,5.46,2.13,6.93A7.93,7.93,0,0,0,253.91,151.57Zm0,29.54a11.39,11.39,0,0,0,7.49-2.28q2.76-2.21,2.76-6.78,0-7.87-9.46-9.06l-4.33-.39a11.13,11.13,0,0,0-5,3.54,9.57,9.57,0,0,0-1.73,5.91q0,4.57,2.76,6.78A11.38,11.38,0,0,0,253.91,181.11Z" transform="translate(-3.31 -82.86)" style="fill:#fff"/><path d="M291.83,169.3a16.91,16.91,0,0,1-9.3-2.53,16.58,16.58,0,0,1-6-7,24.31,24.31,0,0,1,0-19.54,16.07,16.07,0,0,1,6-6.93,17.91,17.91,0,0,1,18.59,0,16,16,0,0,1,6,6.93,24.31,24.31,0,0,1,0,19.54,16.51,16.51,0,0,1-6,7A16.85,16.85,0,0,1,291.83,169.3Zm0-3.16A7.18,7.18,0,0,0,297,164a13.41,13.41,0,0,0,3.47-5.83,27.28,27.28,0,0,0,0-16.39A13.29,13.29,0,0,0,297,136a7.15,7.15,0,0,0-5.12-2.13,7.4,7.4,0,0,0-5.2,2.13,14.31,14.31,0,0,0-3.47,5.83,29,29,0,0,0,0,16.39,14.44,14.44,0,0,0,3.47,5.83A7.43,7.43,0,0,0,291.83,166.14Z" transform="translate(-3.31 -82.86)" style="fill:#fff"/><path d="M320.22,126.75a4.1,4.1,0,0,1-3.16-1.5,5.34,5.34,0,0,1-1.26-3.55,3.52,3.52,0,0,1,.95-2.6,3.78,3.78,0,0,1,2.68-.94,3.88,3.88,0,0,1,3.07,1.5,5.14,5.14,0,0,1,1.34,3.54,3.35,3.35,0,0,1-1,2.6A3.5,3.5,0,0,1,320.22,126.75Zm-3,14.18a12.21,12.21,0,0,0-1.1-5.91q-1.11-2-4.42-2h-1.57v-1.57h7.09a9.28,9.28,0,0,1,4.33.78,4.19,4.19,0,0,1,2.13,2.68,21.09,21.09,0,0,1,.63,6v27.58h-7.09Z" transform="translate(-3.31 -82.86)" style="fill:#fff"/><path d="M334.25,140.93a12.08,12.08,0,0,0-1.11-5.91q-1.09-2-4.41-2h-1.57v-1.57h7.09a9.18,9.18,0,0,1,4.49.86,4.39,4.39,0,0,1,2.2,2.68h.4a11,11,0,0,1,4-3.07,15.13,15.13,0,0,1,6.61-1.26,11.91,11.91,0,0,1,10.48,5.51q3.71,5.45,3.71,13.79t-3.86,13.87q-3.78,5.43-11.11,5.44a19.88,19.88,0,0,1-5.28-.64,26.33,26.33,0,0,1-4.57-1.73v16.55h-7.09Zm14.57,25.21a7.86,7.86,0,0,0,7.41-4.41q2.44-4.41,2.44-11.74t-2.28-11.66q-2.29-4.49-6.78-4.49a9.29,9.29,0,0,0-8.27,4.73v25.21c1.57.73,2.94,1.31,4.09,1.73A9.93,9.93,0,0,0,348.82,166.14Z" transform="translate(-3.31 -82.86)" style="fill:#fff"/><path d="M385.47,169.3q-9.06,0-12.22-3.16a5.7,5.7,0,0,1-1.65-3,32.17,32.17,0,0,1-.32-5.28h1.58a9.89,9.89,0,0,0,3.39,6.15q2.76,2.11,7.64,2.12,4.33,0,6.46-1.49a4.64,4.64,0,0,0,2.21-4,5.26,5.26,0,0,0-1.73-3.94,16.29,16.29,0,0,0-5.36-3.15l-4.73-2a19.5,19.5,0,0,1-7.09-4.42,9.46,9.46,0,0,1,1.26-13.71,15.12,15.12,0,0,1,9.38-2.75q8.67,0,11.81,3.15a5.65,5.65,0,0,1,1.66,3,31.34,31.34,0,0,1,.32,5.28H396.5a9.28,9.28,0,0,0-3.31-6.07,11.21,11.21,0,0,0-7.33-2.2,9.61,9.61,0,0,0-5.83,1.57,4.68,4.68,0,0,0-2,3.94q0,4.11,6.31,6.7l4.72,2a23.2,23.2,0,0,1,7.81,4.73,8.56,8.56,0,0,1,2.44,6.3,8.8,8.8,0,0,1-3.87,7.57A17.06,17.06,0,0,1,385.47,169.3Z" transform="translate(-3.31 -82.86)" style="fill:#fff"/><path d="M419.37,169.3a14.63,14.63,0,0,1-9.69-3.16q-3.71-3.15-3.7-11V140.93a12.08,12.08,0,0,0-1.11-5.91q-1.1-2-4.41-2h-.79v-1.57H406a9.31,9.31,0,0,1,4.33.78,4.19,4.19,0,0,1,2.13,2.68,21.09,21.09,0,0,1,.63,6v14.18c0,3.68.81,6.38,2.44,8.12a8.45,8.45,0,0,0,6.23,2.52q4.17,0,7.87-4.18V131.48h7.09v37h-3.94L430,165.36h-.4a14.07,14.07,0,0,1-4.33,2.83A14.9,14.9,0,0,1,419.37,169.3Z" transform="translate(-3.31 -82.86)" style="fill:#fff"/><path d="M446.88,140.93a12.21,12.21,0,0,0-1.1-5.91q-1.11-2-4.41-2h-1.58v-1.57h7.09a9.88,9.88,0,0,1,4.42.78,4.78,4.78,0,0,1,2.28,2.37H454a13.19,13.19,0,0,1,4.26-2.76,14.62,14.62,0,0,1,6-1.18,11.93,11.93,0,0,1,5.67,1.26,8.5,8.5,0,0,1,3.78,4.25,13.74,13.74,0,0,1,5.2-4,15.69,15.69,0,0,1,6.62-1.49,10.58,10.58,0,0,1,8,3.15q3,3.15,3,11v23.64h-7.09V144.87q0-5.67-1.58-8.12a5.2,5.2,0,0,0-4.72-2.52,8.33,8.33,0,0,0-4.65,1.66,11.54,11.54,0,0,0-3.63,3.46,22.42,22.42,0,0,1,.4,5.52v23.64h-7.09V144.87q0-5.67-1.58-8.12a5.21,5.21,0,0,0-4.73-2.52q-4.17,0-7.88,4.18v30.1h-7.09Z" transform="translate(-3.31 -82.86)" style="fill:#fff"/><path d="M78.91,84.76a19.89,19.89,0,0,1,11,13.89l4.43,20.83a57.54,57.54,0,0,1,.46,21.44c.3.05.59.09.89.12a56.66,56.66,0,0,0,1.14-18.71l-2.22-21.18A19.38,19.38,0,0,0,81.29,84.74l-1.05,0C79.79,84.72,79.35,84.73,78.91,84.76Zm-1.16.11a19.35,19.35,0,0,1,11.61,13.9l4.43,20.83a56.84,56.84,0,0,1,.46,21.23l-.73-.16A57.49,57.49,0,0,0,91,117L84.43,96.77A19.87,19.87,0,0,0,75,85.43,19,19,0,0,1,77.75,84.87Zm.07-.58c.42-.05.84-.09,1.27-.11a17.89,17.89,0,0,0-2.44-.32C77.05,84,77.44,84.13,77.82,84.29Zm-3.43-.45a20.88,20.88,0,0,1,2.26.62,21.21,21.21,0,0,0-2.38.59A20,20,0,0,0,72,84.11c.43-.08.87-.14,1.31-.18S74,83.86,74.39,83.84Zm0-.57a19.61,19.61,0,0,1,7,.91,19.93,19.93,0,0,1,18.78,19.89v21.3A57.41,57.41,0,0,1,98,141.13h17.32a19.93,19.93,0,0,1,18.26,27.92,19.79,19.79,0,0,1-2.33,6.61,20,20,0,0,1-3,6.34,19.87,19.87,0,0,1-3.66,6,19.83,19.83,0,0,1-4.26,5.57,19.93,19.93,0,0,1-4.83,5.1,19.71,19.71,0,0,1-5.33,4.56,19.68,19.68,0,0,1-5.77,4,19.84,19.84,0,0,1-6.16,3.35,19.89,19.89,0,0,1-6.48,2.7,20.06,20.06,0,0,1-6.72,2,19.81,19.81,0,0,1-6.9,1.28,19.59,19.59,0,0,1-7,.56,19.82,19.82,0,0,1-7-.17,19.9,19.9,0,0,1-7-.91,19.93,19.93,0,0,1-18.77-19.89V178.35A57.25,57.25,0,0,1,41.71,159H23.24A19.92,19.92,0,0,1,5,131.14a19.77,19.77,0,0,1,2.33-6.62,19.89,19.89,0,0,1,3-6.33,20,20,0,0,1,3.66-6,19.92,19.92,0,0,1,4.26-5.56,20.06,20.06,0,0,1,4.82-5.1A20,20,0,0,1,28.39,97a19.86,19.86,0,0,1,5.78-4,20.08,20.08,0,0,1,6.16-3.36,20,20,0,0,1,6.48-2.69,19.9,19.9,0,0,1,6.72-2,20.15,20.15,0,0,1,6.9-1.29,20.06,20.06,0,0,1,7-.56A20.12,20.12,0,0,1,74.44,83.27Zm-4.75.18a20,20,0,0,1,2.45.06c-.42.07-.83.15-1.24.24C70.5,83.64,70.09,83.54,69.69,83.45Zm-4.52.12a20.23,20.23,0,0,0-2.45.2c.41,0,.83.11,1.24.18C64.35,83.81,64.76,83.69,65.17,83.57Zm-.06.61c.43-.12.86-.22,1.29-.32l1-.19a19.86,19.86,0,0,1,2.31.38,19.63,19.63,0,0,0-2.3.83A20.37,20.37,0,0,0,65.11,84.18Zm-2.26.18a18.36,18.36,0,0,0-2.34-.13l-1,.29c-.43.14-.84.29-1.25.46a19.35,19.35,0,0,1,2.39.45A19.57,19.57,0,0,1,62.85,84.36Zm-1.41,1.29A18.84,18.84,0,0,1,64,84.54a17.81,17.81,0,0,1,2.7.69,19.73,19.73,0,0,0-2.53,1.45A20.4,20.4,0,0,0,61.44,85.65Zm-1.51.2a19.4,19.4,0,0,0-2.75-.41,20.74,20.74,0,0,0-2.44,1.38,21,21,0,0,1,2.83.74A21.19,21.19,0,0,1,59.93,85.85ZM58.2,87.79A20.19,20.19,0,0,1,60.72,86a19.71,19.71,0,0,1,2.91,1,19.34,19.34,0,0,0-2.47,2.14A19.61,19.61,0,0,0,58.2,87.79Zm-.51.42a19.73,19.73,0,0,0-2.32,2.43,20,20,0,0,1,3.14,1.91,19.84,19.84,0,0,1,2.24-2.92A19.3,19.3,0,0,0,57.69,88.21ZM57.07,88a19.37,19.37,0,0,0-2.23,2.39,19.39,19.39,0,0,0-3.1-1.1,17.9,17.9,0,0,1,2.34-2A18.3,18.3,0,0,1,57.07,88Zm-3.14-1.31A20.15,20.15,0,0,1,56,85.39a20.36,20.36,0,0,0-2.34.11l-1,.4c-.41.19-.81.38-1.2.59A18,18,0,0,1,53.93,86.69Zm-3.44.37a18.42,18.42,0,0,1,2.78.12,19.21,19.21,0,0,0-2.17,1.95,20.19,20.19,0,0,0-2.89-.45A18.73,18.73,0,0,1,50.49,87.06Zm-.17-.57c.36-.21.73-.42,1.11-.61a18.19,18.19,0,0,0-2.36.7C49.49,86.54,49.9,86.51,50.32,86.49Zm-3.32,1a18.61,18.61,0,0,1,2.32-.36,19.19,19.19,0,0,0-1.93,1.51,18,18,0,0,0-2.44,0c.37-.25.74-.48,1.13-.7S46.69,87.64,47,87.49Zm-2.19.6a20.21,20.21,0,0,0-2.27,1c.41-.09.82-.16,1.24-.22C44.11,88.57,44.46,88.33,44.81,88.09Zm-2,1.47a19,19,0,0,0-1.77,1.7,19.77,19.77,0,0,0-2.42.31c.34-.28.69-.56,1.05-.82s.58-.41.87-.6A20.48,20.48,0,0,1,42.85,89.56ZM44,89.37a18.54,18.54,0,0,0-2.09,1.85,20.4,20.4,0,0,1,2.92.14,19.9,19.9,0,0,1,2-2.17A19.87,19.87,0,0,0,44,89.37Zm3.59-.15a20.18,20.18,0,0,0-2.11,2.23,20.59,20.59,0,0,1,3.19.77,20.83,20.83,0,0,1,2-2.61A19.7,19.7,0,0,0,47.59,89.22Zm3.7.54a20,20,0,0,0-2.06,2.65A19.74,19.74,0,0,1,52.55,94a20.67,20.67,0,0,1,1.93-3.14A19.37,19.37,0,0,0,51.29,89.76ZM55,91.1a18.62,18.62,0,0,0-2,3.19,19.93,19.93,0,0,1,2.7,2l.69.63A19.55,19.55,0,0,1,58.21,93,18.83,18.83,0,0,0,55,91.1Zm3.65,2.29a19.67,19.67,0,0,0-1.76,4l3.69,3.33a20,20,0,0,1,1.21-4.22L61,95.6A19.54,19.54,0,0,0,58.66,93.39ZM62.23,97a19,19,0,0,0-1.13,4.2l10.46,9.42A57.38,57.38,0,0,1,88.7,138.75l.15.09a56.8,56.8,0,0,0-13.59-27.42ZM89.5,139.19A57.38,57.38,0,0,0,75.68,111L62.47,96.37a20,20,0,0,1,2.18-3.78A20.57,20.57,0,0,1,66.75,95l12.52,17.23a56.77,56.77,0,0,1,10.49,27.07Zm-.51.38-.1,0c.07.26.13.53.19.79l0,0C89.08,140.08,89,139.83,89,139.57Zm.79,1.28c0-.32-.1-.64-.16-1l.21.1q.06.48.09,1ZM88,138.32A56.77,56.77,0,0,0,71.18,111L61,101.85a18.13,18.13,0,0,0-.13,2.22v1.74l6.54,4.75A57.43,57.43,0,0,1,88,138.29Zm-1.18-1.49A56.82,56.82,0,0,0,67.09,111l-6.21-4.51v3.06L63.3,111A57.37,57.37,0,0,1,86.81,136.83Zm-26.5-27.59V106.1L56,103a18.6,18.6,0,0,0,.11,2.23l.18,1.72Zm-3.94-1.61,3.94,2.27v2.39l-1.07-.49-2.55-1.13Zm-.68-1.06-.14-1.31a18.86,18.86,0,0,1-.1-2.7l-4.11-3a19.57,19.57,0,0,0-.24,4.34Zm-4.53-1.95,4.6,2.65.33,3.13-4.23-1.89-.36-1.69A18.91,18.91,0,0,1,51.16,104.62Zm-.65-1a20,20,0,0,1,.31-4.38l-1-.7a20.18,20.18,0,0,0-2.75-1.67,19.34,19.34,0,0,0-.91,4.27Zm-4.36-1.85,4.4,2.54a20.71,20.71,0,0,0,.39,2.67l.27,1.29-4.83-2.16A18.66,18.66,0,0,1,46.15,101.73Zm-.49-1a20.08,20.08,0,0,1,.93-4.2,19.3,19.3,0,0,0-3.54-1.23,19.77,19.77,0,0,0-1.26,3.53,19,19,0,0,1,3.07,1.44Zm-4-1.34a19.73,19.73,0,0,1,2.91,1.37l1,.6a20.25,20.25,0,0,0,.15,4.39l-4.54-2A19.59,19.59,0,0,1,41.66,99.44Zm-.41-.75a21,21,0,0,1,1.23-3.47,18.81,18.81,0,0,0-3.34-.4,18.72,18.72,0,0,0-1.47,3A19.41,19.41,0,0,1,41.25,98.69Zm-3.78-.3a18.78,18.78,0,0,1,3.65.86,19.61,19.61,0,0,0-.48,4.27l-.85-.38a19.27,19.27,0,0,0-3.2-1.11A19.71,19.71,0,0,1,37.47,98.39Zm-.38-.62a20.45,20.45,0,0,1,1.39-3,19.65,19.65,0,0,0-3.07.24,19.23,19.23,0,0,0-1.6,2.63A18.93,18.93,0,0,1,37.09,97.77Zm-3.56.5a18.87,18.87,0,0,1,3.36,0A20.75,20.75,0,0,0,36,101.9a18.91,18.91,0,0,0-3.64-.47A18.08,18.08,0,0,1,33.53,98.27Zm-.38-.55a19.86,19.86,0,0,1,1.46-2.52,17.76,17.76,0,0,0-2.68.75,19,19,0,0,0-1.67,2.25A20.26,20.26,0,0,1,33.15,97.72Zm-3.31,1.17a18.37,18.37,0,0,1,3-.56,20.06,20.06,0,0,0-1.07,3.08,20.9,20.9,0,0,0-3.27.26A20.08,20.08,0,0,1,29.84,98.89Zm-.38-.49a22.53,22.53,0,0,1,1.38-2,17.14,17.14,0,0,0-2.1,1.05l-.72.76c-.3.33-.58.67-.86,1A20.91,20.91,0,0,1,29.46,98.4Zm-3,1.75a18.62,18.62,0,0,1,2.59-1,20.5,20.5,0,0,0-1.19,2.67,18.38,18.38,0,0,0-2.82.77A18.33,18.33,0,0,1,26.47,100.15Zm-.38-.45c.24-.34.49-.68.76-1A21.53,21.53,0,0,0,25,100.28C25.35,100.08,25.71,99.88,26.09,99.7ZM23.46,102a20.51,20.51,0,0,1,2-1.26,20.34,20.34,0,0,0-1.15,2.16,20.07,20.07,0,0,0-2.2,1c.23-.38.48-.74.74-1.1S23.24,102.22,23.46,102Zm-1.75,1.45A19,19,0,0,0,20,105.18c.34-.24.69-.47,1-.69S21.48,103.76,21.71,103.4Zm-1.2,2.14A21.28,21.28,0,0,0,18.68,107c-.19.29-.37.59-.55.9s-.43.78-.62,1.17a19.18,19.18,0,0,1,2.08-1.26A19.26,19.26,0,0,1,20.51,105.54Zm-1.17,3A19.73,19.73,0,0,0,17,110.13a18.75,18.75,0,0,0-.89,2.65,20.52,20.52,0,0,1,2.6-1.33A20.2,20.2,0,0,1,19.34,108.59Zm0,2.61a19.39,19.39,0,0,1,.71-3A19.14,19.14,0,0,1,22.9,107a20.93,20.93,0,0,0-.41,3.25A19.17,19.17,0,0,0,19.35,111.2Zm-.69.9A19.74,19.74,0,0,0,16,113.58a19.73,19.73,0,0,0-.39,3,20.15,20.15,0,0,1,3-1.26A18.83,18.83,0,0,1,18.66,112.1Zm.49,3.1a19.76,19.76,0,0,1,.11-3.35,18.75,18.75,0,0,1,3.22-1,20.45,20.45,0,0,0,.28,3.66A20.72,20.72,0,0,0,19.15,115.2Zm-.52.76a19.67,19.67,0,0,0-3.09,1.32,18.69,18.69,0,0,0,.24,3.35,19.86,19.86,0,0,1,3.52-1A21.35,21.35,0,0,1,18.63,116Zm1.24,3.51a19.24,19.24,0,0,1-.68-3.68,18.84,18.84,0,0,1,3.68-.7,19.53,19.53,0,0,0,1.3,4.1h-.93A20.71,20.71,0,0,0,19.87,119.47Zm-.4.66a18.86,18.86,0,0,0-3.59,1.08,19.32,19.32,0,0,0,9.34,13.13L43.66,145a18.28,18.28,0,0,1,3.58,2.7c.21-.33.42-.67.64-1A17.67,17.67,0,0,0,44,142.8L26.77,130.29A19.86,19.86,0,0,1,19.47,120.13Zm28.75,26.06a18,18,0,0,0-3.89-3.85L27.1,129.82A19.29,19.29,0,0,1,20,120a20.05,20.05,0,0,1,3.21-.26h1.19A19.82,19.82,0,0,0,29.07,126L44.9,140.2a17.53,17.53,0,0,1,3.91,5.13C48.61,145.61,48.42,145.9,48.22,146.19Zm0,1c-.2.3-.4.6-.59.91l.28.3c.16-.31.33-.62.5-.92Zm.51-.27-.17-.25c.17-.25.34-.51.52-.76,0,.07.07.15.1.23Zm0,1.12c-.14.27-.29.54-.44.81l.2.23c.12-.28.24-.55.37-.83A2.39,2.39,0,0,0,48.77,148.05Zm.42-.41-.1-.17.39-.66.05.13C49.42,147.17,49.3,147.4,49.19,147.64Zm.05,1.25c-.1.24-.21.47-.31.7l.12.15c.08-.24.17-.48.26-.72Zm.34-.59,0-.06c.09-.18.17-.37.26-.55v0C49.73,147.91,49.65,148.1,49.58,148.3Zm.08,1.44c-.07.19-.14.38-.2.57l0,.06c0-.21.11-.41.16-.61Zm-.36,1.37-.07-.12-.24.73.13.14Zm.29,1.27c0-.2.09-.4.14-.59h0c0,.21-.07.42-.11.63Zm-.63.16c-.05-.07-.11-.13-.16-.19-.09.3-.18.59-.26.89l.23.18C48.83,153.13,48.9,152.83,49,152.54Zm.31,1.29c0-.25.11-.5.16-.75l.09.11c0,.25-.07.51-.1.77Zm-.63.22-.27-.21c-.1.34-.19.69-.28,1l.36.19C48.51,154.74,48.58,154.4,48.64,154.05Zm.34,1.34c.05-.3.11-.61.16-.91l.19.16c0,.31-.07.61-.1.91Zm-.63.29-.4-.22c-.1.41-.19.82-.28,1.23l.49.17C48.22,156.47,48.28,156.07,48.35,155.68Zm.36,1.39c0-.36.11-.71.17-1.07l.29.19c0,.34-.06.69-.08,1Zm-.63.37-.53-.19c-.1.48-.19.95-.28,1.43l.65.11C48,158.34,48,157.89,48.08,157.44Zm.4,1.47.15-1.25.42.18c0,.39,0,.79-.06,1.19A4.7,4.7,0,0,0,48.48,158.91Zm-.62.45-.68-.12a56.75,56.75,0,0,0,2,27.1l5.49,16.89a19.25,19.25,0,0,0,9.66,11.28,18.55,18.55,0,0,0,2.83-1.18,19.83,19.83,0,0,1-7.38-8.63l-7.22-16.22A57.4,57.4,0,0,1,47.86,159.36ZM67.71,213a19.31,19.31,0,0,1-7.44-8.56l-7.22-16.22a56.76,56.76,0,0,1-4.63-28.76l.55.13A57.36,57.36,0,0,0,56.63,190l8.88,15.37a19.79,19.79,0,0,0,5,5.74A19.44,19.44,0,0,1,67.71,213Zm0,.66A21.28,21.28,0,0,1,65,214.87a20.41,20.41,0,0,0,2.61,1,18.38,18.38,0,0,0,2.67-.83A21.28,21.28,0,0,1,67.7,213.68Zm3.36,1a20.2,20.2,0,0,1-2.78-1.32A20.72,20.72,0,0,0,71,211.49a20.61,20.61,0,0,0,2.8,1.72A20.7,20.7,0,0,1,71.06,214.68Zm0,.62a20.46,20.46,0,0,1-2.31.83,20,20,0,0,0,2.32.38l1-.19c.44-.1.87-.2,1.29-.32A20.82,20.82,0,0,1,71.08,215.3Zm3.44.34a18,18,0,0,1-2.69-.69,19.61,19.61,0,0,0,2.52-1.45,20.53,20.53,0,0,0,2.74,1A19,19,0,0,1,74.52,215.64Zm0,.59c-.4.14-.8.26-1.21.37a18.5,18.5,0,0,0,2.45-.19C75.39,216.36,75,216.3,74.57,216.23ZM78,216a18.15,18.15,0,0,1-2.34-.13,20.34,20.34,0,0,0,2.2-1.07,19.51,19.51,0,0,0,2.4.45c-.41.17-.83.32-1.25.45S78.36,215.86,78,216Zm2.27-.14a20.4,20.4,0,0,0,2.41-.45c-.41,0-.83,0-1.25,0C81.07,215.49,80.68,215.66,80.29,215.81Zm2.22-1a20.64,20.64,0,0,0,2.35-.11c.32-.13.64-.26,1-.41s.8-.37,1.19-.58a18.1,18.1,0,0,1-2.43-.2A19.13,19.13,0,0,1,82.51,214.79ZM85.26,213a18.42,18.42,0,0,0,2.78.12,20.67,20.67,0,0,0,2.27-1.62,20.41,20.41,0,0,1-2.89-.45A20,20,0,0,1,85.26,213Zm1.52-2.11a18.49,18.49,0,0,1-2.33,2,18.17,18.17,0,0,1-3-.71,20.25,20.25,0,0,0,2.24-2.39A19.28,19.28,0,0,0,86.78,210.89Zm1.09-.33a18.58,18.58,0,0,0,3.06.4A19.29,19.29,0,0,0,93,208.73a20.59,20.59,0,0,1-3.19-.77A19.18,19.18,0,0,1,87.87,210.56Zm1.42-2.79a18.65,18.65,0,0,1-2.06,2.65,19.26,19.26,0,0,1-3.18-1.09A20,20,0,0,0,86,206.2,20.5,20.5,0,0,0,89.29,207.77Zm.87-.31a18.55,18.55,0,0,0,3.28.75,18.76,18.76,0,0,0,1.77-2.85,20.16,20.16,0,0,1-3.47-1.22A19.78,19.78,0,0,1,90.16,207.46Zm1.07-3.57a19.85,19.85,0,0,1-1.63,3.38,20.36,20.36,0,0,1-3.38-1.59,20,20,0,0,0,1.36-4.08l.75.54A20.13,20.13,0,0,0,91.23,203.89Zm.71-.29a19,19,0,0,0,3.53,1.23,19.77,19.77,0,0,0,1.26-3.53,19.39,19.39,0,0,1-3.07-1.44l-.8-.46A19.93,19.93,0,0,1,91.94,203.6Zm.38-4.52a19.91,19.91,0,0,1-.9,4.27,19.68,19.68,0,0,1-2.76-1.67l-1-.7A19.34,19.34,0,0,0,88,196.6Zm.6-.31,1,.59a19.26,19.26,0,0,0,2.91,1.38,19,19,0,0,0,.45-4.33l-4.54-2A19.64,19.64,0,0,1,92.92,198.77Zm-.77-4.66a19.22,19.22,0,0,1,.22,4.34L88,195.92a19,19,0,0,0-.38-2.68L87.32,192Zm.51-.4,4.64,2.06a18.87,18.87,0,0,0-.68-4.3l-5-1.63.41,1.25A20.5,20.5,0,0,1,92.66,193.71Zm-1.74-4.09.53,1.64a17.22,17.22,0,0,1,.57,2.16l-4.85-2.16-.65-3.07.07,0Zm.45-.45,5.06,1.64a21.25,21.25,0,0,0-.79-2.09l-.71-1.58-4.45-.95H90.4ZM89.75,186l1,2.92-3.93-1.28-.39-.13L85.84,185C87.13,185.39,88.43,185.73,89.75,186Zm.45-.48.4.08,4.05.86-1.25-2.8c-1.35-.16-2.68-.36-4-.61ZM88.75,183l.8,2.45c-1.3-.3-2.58-.65-3.85-1l-.47-2.24C86.39,182.43,87.57,182.71,88.75,183Zm.44-.49c1.3.25,2.62.46,3.94.62l-1-2.35c-1.2-.11-2.4-.26-3.59-.45Zm-1.34-2.29.7,2.16c-1.16-.25-2.32-.53-3.46-.84l-.41-2C85.73,179.78,86.79,180,87.85,180.17Zm.44-.51c1.16.2,2.34.35,3.52.47l-3.39-7.63a18,18,0,0,1-1.25-10.76l-.08.1a17.5,17.5,0,0,0-.58,12.36ZM88,160.72a17.48,17.48,0,0,0,1,11.55l3.53,7.92c1.32.12,2.64.19,4,.22l-5.8-10a18.1,18.1,0,0,1-2.4-10C88.16,160.49,88.07,160.6,88,160.72Zm.9-1.19a17.55,17.55,0,0,0,2.26,10.56l6,10.33h4.55l-9-12.39a18.18,18.18,0,0,1-3.38-9Zm.9-1.25a17.53,17.53,0,0,0,3.33,9.41l9.25,12.73h5.31a19,19,0,0,0-1.4-1.74L94.4,165.48a18.17,18.17,0,0,1-4.15-7.87C90.1,157.83,90,158.06,89.79,158.28Zm.9-1.33a17.47,17.47,0,0,0,4.14,8.15l11.88,13.2a19.94,19.94,0,0,1,1.67,2.12h5.07a19.36,19.36,0,0,0-4.38-5.77l-13.2-11.88a18.11,18.11,0,0,1-4.65-6.63Zm.27-1.47-.42.66v0q.21-.36.39-.72Zm.63.06a17.74,17.74,0,0,0,4.66,6.81l13.2,11.88a19.82,19.82,0,0,1,4.64,6.19h1.19a19,19,0,0,0,3.21-.27,19.31,19.31,0,0,0-7.07-9.79L97.05,159.92a18,18,0,0,1-4.88-5.33Zm.25-1.52-.49.83-.06-.17c.15-.29.3-.58.44-.87Zm.66,0a17.53,17.53,0,0,0,4.89,5.44l14.36,10.43a19.86,19.86,0,0,1,7.3,10.16,18.64,18.64,0,0,0,3.59-1.08,19.32,19.32,0,0,0-9.34-13.13L97.93,157a17.84,17.84,0,0,1-4.81-4Zm.23-1.57-.55,1-.14-.27c.16-.33.32-.66.47-1Zm.68-.07a17.51,17.51,0,0,0,4.8,4.09l15.38,8.87a19.9,19.9,0,0,1,9.59,13.4,19.2,19.2,0,0,0,2.94-1.64,19.35,19.35,0,0,0-11.41-15.95l-16.22-7.22a18.16,18.16,0,0,1-4.43-2.8C93.85,151.55,93.63,152,93.41,152.38Zm.21-1.65c-.2.39-.39.78-.6,1.16l-.24-.32c.17-.38.34-.77.5-1.15Zm.7-.13a17.41,17.41,0,0,0,4.4,2.8l16.22,7.23a19.92,19.92,0,0,1,11.72,16.09,19.31,19.31,0,0,0,2.34-2,19.36,19.36,0,0,0-13.38-18.38l-16.89-5.49a18.5,18.5,0,0,1-3.73-1.7C94.78,149.64,94.56,150.12,94.32,150.6Zm.19-1.75q-.3.68-.63,1.35l-.36-.35c.17-.44.35-.88.51-1.32Zm.73-.22a17.46,17.46,0,0,0,3.67,1.68l16.88,5.48a20,20,0,0,1,13.77,18.34,20.44,20.44,0,0,0,1.73-2.18A19.36,19.36,0,0,0,116,151.46l-17.36-3.69A18.68,18.68,0,0,1,96,147C95.72,147.53,95.48,148.08,95.24,148.63Zm.17-1.87q-.31.78-.66,1.56l-.51-.35c.18-.5.36-1,.53-1.5Zm.75-.32a17.45,17.45,0,0,0,2.61.77l17.36,3.69A19.92,19.92,0,0,1,131.91,171a18.58,18.58,0,0,0,1.08-2.08c.06-.34.1-.69.14-1a19.36,19.36,0,0,0-17.23-21.28l-17.66-1.85c-.46-.05-.91-.12-1.36-.2C96.65,145.16,96.41,145.8,96.16,146.44Zm.15-2c-.22.61-.44,1.22-.68,1.82-.23-.09-.46-.19-.68-.3.18-.57.36-1.15.52-1.72Zm.76-.44c.41.08.82.13,1.23.18L116,146a19.94,19.94,0,0,1,17.83,20.76,19.39,19.39,0,0,0-18.51-25H97.79C97.57,142.46,97.32,143.22,97.07,144Zm.12-2.26c-.21.73-.44,1.44-.69,2.15l-.87-.2c.18-.67.35-1.33.51-2C96.49,141.68,96.84,141.7,97.19,141.7Zm.17-.57a56.67,56.67,0,0,0,2.23-15.76v-21.3A19.36,19.36,0,0,0,83.53,85a19.9,19.9,0,0,1,11.66,16.09l2.22,21.18a57.32,57.32,0,0,1-1.13,18.82C96.64,141.12,97,141.13,97.36,141.13Zm-1.79.47-.86-.11c-.1.59-.22,1.18-.34,1.77l.71.23C95.25,142.86,95.42,142.23,95.57,141.6ZM94.92,144l-.67-.22c-.12.52-.24,1-.37,1.55l.55.3C94.6,145.13,94.77,144.58,94.92,144Zm-.67,2.18-.52-.27c-.12.45-.24.91-.37,1.36l.4.31C93.93,147.16,94.09,146.69,94.25,146.22Zm-.7,2-.37-.27c-.12.4-.24.8-.37,1.19l.27.3C93.24,149,93.4,148.59,93.55,148.18Zm-.71,1.8-.24-.25c-.11.35-.24.7-.36,1.05l.16.24C92.55,150.68,92.7,150.33,92.84,150Zm-.71,1.66-.13-.2c-.12.31-.23.61-.35.91a1.11,1.11,0,0,1,.07.16C91.86,152.22,92,151.93,92.13,151.64Zm-.73,1.54,0-.1c-.1.25-.21.5-.32.75l0,0Zm-.07-1.6c.1-.24.19-.49.28-.73l-.06-.1c-.08.26-.15.52-.23.78Zm.43-1.59.09.16c.11-.3.21-.61.31-.91l-.15-.18C91.93,149.37,91.85,149.68,91.76,150Zm-.2-1.49c-.06.26-.13.51-.19.76l0,0,.15-.8Zm.62-.13.19.23q.18-.54.33-1.08l-.26-.23C92.36,147.65,92.27,148,92.18,148.37ZM92,146.85l-.21.94-.11-.15.15-.95Zm.63-.2.3.26c.12-.41.23-.83.34-1.26l-.4-.23C92.75,145.83,92.66,146.24,92.58,146.65Zm-.28-1.57c-.06.37-.14.74-.21,1.11l-.21-.21c.05-.36.09-.73.14-1.1Zm.63-.27.44.27c.11-.49.23-1,.33-1.45l-.53-.22C93.09,143.88,93,144.34,92.93,144.81Zm-.31-1.64c-.06.43-.13.86-.2,1.29l-.33-.23.12-1.25Zm.63-.34.58.23c.11-.56.22-1.11.32-1.67-.23,0-.47-.09-.7-.15C93.39,141.77,93.33,142.3,93.25,142.83Zm-.36-1.72q-.08.73-.18,1.47l-.46-.22c0-.47.06-.94.09-1.41Zm.07-.58a57,57,0,0,0-2.49-23.33L83.89,97a19.28,19.28,0,0,0-9.66-11.28,18.66,18.66,0,0,0-2.84,1.18,19.83,19.83,0,0,1,7.38,8.63l8.67,19.46a57.41,57.41,0,0,1,4.92,25.42Zm-1.17-.36a56.61,56.61,0,0,0-4.88-25L78.25,95.71a19.22,19.22,0,0,0-7.44-8.55A19.44,19.44,0,0,0,68,89.05a19.64,19.64,0,0,1,5,5.74l10.65,18.44A57.27,57.27,0,0,1,91.32,140Zm0,.6-.43-.15c0,.42,0,.84,0,1.26l.35.19C91.73,141.64,91.75,141.2,91.77,140.77Zm-.12,1.93-.3-.17c0,.37,0,.74,0,1.11l.23.18C91.59,143.45,91.63,143.07,91.65,142.7Zm-.16,1.79a1.33,1.33,0,0,1-.19-.14c0,.32,0,.65,0,1l.12.13Zm-.22,1.69-.07-.08c0,.27,0,.55-.07.82l0,0C91.2,146.7,91.24,146.44,91.27,146.18Zm-.56-1.49c0-.27,0-.53,0-.79l-.08-.07c0,.27,0,.55,0,.82ZM90.63,143l.14.12c0-.32,0-.64,0-1l-.2-.12C90.6,142.4,90.62,142.72,90.63,143ZM90,141.69c0,.26,0,.52,0,.78l0,0c0-.27-.06-.54-.1-.81Zm.55-.32.25.16c0-.38,0-.76,0-1.13l-.32-.14Zm-.16-1.76.37.16a56.9,56.9,0,0,0-7.57-26.26L72.52,95.07a19.28,19.28,0,0,0-4.94-5.65A20,20,0,0,0,65,92.13a20.32,20.32,0,0,1,2.21,2.57l12.52,17.22A57.42,57.42,0,0,1,90.37,139.61ZM64.58,91.74a19.43,19.43,0,0,1,2.54-2.67,20.26,20.26,0,0,0-2.89-1.73,19.8,19.8,0,0,0-2.57,2.17A19.46,19.46,0,0,1,64.58,91.74Zm-.35.46a19.07,19.07,0,0,0-3-2.27,20.07,20.07,0,0,0-2.29,3,19.89,19.89,0,0,1,2.47,2.31l.62.69A20.43,20.43,0,0,1,64.23,92.2ZM64.77,87a20.5,20.5,0,0,1,2.79,1.72,20.16,20.16,0,0,1,2.69-1.87,20.2,20.2,0,0,0-2.78-1.32A19.48,19.48,0,0,0,64.77,87Zm3.45-1.79a21.28,21.28,0,0,1,2.61,1.32,20.52,20.52,0,0,1,2.66-1.19,20.86,20.86,0,0,0-2.61-1A20.06,20.06,0,0,0,68.22,85.18Zm17.12,49.9A56.93,56.93,0,0,0,63,111.46l-2.14-1.23v2.33A57.44,57.44,0,0,1,85.34,135.08Zm-1.65-1.59A56.84,56.84,0,0,0,60.88,113.2v2A57.57,57.57,0,0,1,83.69,133.49ZM60.31,115v-2l-1.3-.59-2.25-1,.24,2.33C58.12,114.05,59.22,114.48,60.31,115Zm-3.24-.67c1.1.4,2.18.83,3.24,1.3v1.77q-1.5-.59-3-1.08Zm-.66-.85-.25-2.37L52,109.21l.64,3,2.66.86Zm-3.63-.59,2.34.76,1.35.46.22,2c-1.13-.35-2.27-.67-3.43-1ZM52,112l-.65-3.07-4.86-2.16a20.66,20.66,0,0,0,.57,2.15l.53,1.65Zm-4.19-.76,4.33,1.41.5,2.34-1.15-.26-2.73-.58Zm-.89-.89-.4-1.25a19,19,0,0,1-.67-2.62l-4.63-2.06a19.42,19.42,0,0,0,.67,4.3Zm-4.83-1,5,1.65,1,3-4.53-1-.7-1.58A19,19,0,0,1,42.1,109.37Zm-.85-.87a19.66,19.66,0,0,1-.61-4.35l-1.08-.48a19.65,19.65,0,0,0-3-1.07,19.26,19.26,0,0,0,0,4.36Zm-4.65-.91,4.83,1.57a20.28,20.28,0,0,0,.93,2.53l.54,1.2-5.18-1.1A19,19,0,0,1,36.6,107.59Zm-.68-.82a19.93,19.93,0,0,1,0-4.3,19,19,0,0,0-3.72-.48,19.45,19.45,0,0,0-.49,3.72,19.35,19.35,0,0,1,3.29.77Zm-4.19-.49a20.71,20.71,0,0,1,3.14.74l1.13.37a19.39,19.39,0,0,0,1.06,4.26l-4.87-1A19.29,19.29,0,0,1,31.73,106.28Zm-.55-.65a19.42,19.42,0,0,1,.48-3.64,18.91,18.91,0,0,0-3.36.3,19.16,19.16,0,0,0-.8,3.26A19.74,19.74,0,0,1,31.18,105.63Zm-3.76.5a18.76,18.76,0,0,1,3.74.08,20,20,0,0,0,.42,4.28l-.91-.19a20.47,20.47,0,0,0-3.36-.43A19.47,19.47,0,0,1,27.42,106.13Zm-.51-.53a19.69,19.69,0,0,1,.75-3.19,19.66,19.66,0,0,0-2.95.88,19.61,19.61,0,0,0-1,2.9A20.51,20.51,0,0,1,26.91,105.6Zm-3.38,1.23a19.38,19.38,0,0,1,3.31-.65,19.67,19.67,0,0,0-.1,3.68,19.41,19.41,0,0,0-3.67.3A19.76,19.76,0,0,1,23.53,106.83Zm-.48,3.91a19.58,19.58,0,0,0,.29,3.74,20.16,20.16,0,0,1,3.38.07l.92.09a20.31,20.31,0,0,1-.86-4.21A19.3,19.3,0,0,0,23.05,110.74Zm4.31-.29a19,19,0,0,0,.91,4.26l4.95.52a19.68,19.68,0,0,1-1.5-4.13l-1.17-.24A18.46,18.46,0,0,0,27.36,110.45Zm5,.78a19.36,19.36,0,0,0,1.55,4.07l5.27.55-.66-1.14a18.69,18.69,0,0,1-1.19-2.42ZM38,112.44a20.56,20.56,0,0,0,1,2l.87,1.5,4.61.48-1.28-2.87Zm5.89,1.25,1.24,2.79,2.78.29,1.16.14-.73-2.28ZM49,114.77l.72,2.22c1.18.16,2.35.36,3.51.59l-.42-2-1.4-.32Zm4.42,1,.42,2c1,.22,2.09.47,3.13.75l-.19-1.76C55.64,116.35,54.53,116,53.39,115.75Zm4,1.14.18,1.74c.93.26,1.86.55,2.78.86V118C59.33,117.58,58.34,117.22,57.35,116.89Zm3.53,1.3v1.5a57.45,57.45,0,0,1,19,11.15A57,57,0,0,0,60.88,118.19Zm17,11.64a57,57,0,0,0-17-9.54v1.27A57.57,57.57,0,0,1,77.84,129.83ZM60.31,121.4v-1.31c-.9-.3-1.8-.59-2.72-.85l.16,1.49C58.61,120.93,59.46,121.15,60.31,121.4Zm-2.5-.07c.84.2,1.67.42,2.5.66v3.38A17.56,17.56,0,0,1,56.7,136a18.14,18.14,0,0,0,1.64-9.65Zm-.65-.74L57,119.07q-1.52-.42-3.06-.75l.36,1.7C55.26,120.19,56.21,120.38,57.16,120.59Zm-2.73,0c.94.16,1.87.35,2.79.56l.55,5.25a17.56,17.56,0,0,1-2.47,11,18.11,18.11,0,0,0,.62-9.77Zm-.73-.71-.37-1.73c-1.14-.23-2.29-.43-3.44-.6l.62,1.91C51.58,119.61,52.64,119.75,53.7,119.92Zm-3,.18q1.57.16,3.12.42l1.54,7.25a17.47,17.47,0,0,1-1.29,11.13l0,0a18.07,18.07,0,0,0-.4-9.75Zm-.81-.66-.63-1.93-1.42-.17-2.45-.26,1,2.14C47.53,119.25,48.71,119.33,49.89,119.44Zm-3.29.36c1.16,0,2.33.12,3.48.23l3,9.31a17.59,17.59,0,0,1,.11,10.48L53,140a18.18,18.18,0,0,0-1.48-9.12Zm-.89-.6-1-2.18-4.52-.48,1.53,2.65h4Zm-3.64.56h2.47l1.42,0L51,131.15a17.58,17.58,0,0,1,1.33,9.64l-.31.36a18.08,18.08,0,0,0-2.41-8.28Zm-1-.57-1.57-2.72-5.29-.56a22.2,22.2,0,0,0,1.21,1.88l1,1.4Zm-4.22.57h4.55l7.74,13.4a17.44,17.44,0,0,1,2.34,8.65l-.4.5A18,18,0,0,0,48,135Zm-1.12-.57L35,118.12a19.76,19.76,0,0,1-1.44-2.28l-5.05-.53a19.68,19.68,0,0,0,2,3.88Zm-4.9.57h5.32l11.32,15.59a17.57,17.57,0,0,1,3.14,7.55l-.48.62a18,18,0,0,0-3.65-6.19L32.24,121.5A19,19,0,0,1,30.84,119.76Zm-1.07-.57a19.2,19.2,0,0,1-1.92-4l-1.19-.12a19.3,19.3,0,0,0-3.22-.08,19.93,19.93,0,0,0,1.35,4.15Zm-4.7.57h5.07a22.19,22.19,0,0,0,1.67,2.12l14.25,15.83a17.59,17.59,0,0,1,3.66,6.36l-.53.73a18.24,18.24,0,0,0-3.91-5L29.45,125.53A19.2,19.2,0,0,1,25.07,119.76Zm24.41,25.62.08.17c.13-.22.27-.44.41-.66a.65.65,0,0,1,0-.13Zm.88-1.2,0,.07c.11-.18.23-.36.35-.53v0Zm-.2,1.49-.32.52,0,.06c.1-.18.19-.37.29-.56ZM50,153.82c0,.2,0,.4-.08.6,0,0,0,0,0,.05,0-.21,0-.42,0-.63ZM50,155.23l-.1-.09c0,.25-.05.51-.08.76l.16.11C49.93,155.75,49.94,155.49,50,155.23Zm.54,1.19c0-.2,0-.41,0-.61l0,0,0,.63Zm-.58.28-.2-.14c0,.3-.05.61-.07.92l.27.13Zm.58,1.21c0-.26,0-.52,0-.77l.11.08.06.78Zm-.57.34-.32-.15c0,.36,0,.72-.05,1.08l.39.12C49.93,159,49.92,158.6,49.92,158.25Zm.6,1.24c0-.31,0-.62,0-.93l.21.13.09.9Zm-.55.42-.44-.14a56.81,56.81,0,0,0,7.6,30L66,205.11a19.57,19.57,0,0,0,4.94,5.65,20.11,20.11,0,0,0,2.59-2.71,20.39,20.39,0,0,1-2.22-2.57L60.87,191.12A57.45,57.45,0,0,1,50,159.91Zm23.9,47.68a19.81,19.81,0,0,1-2.1-2.44L61.34,190.78a56.8,56.8,0,0,1-10.79-30.67l.33.12a57.34,57.34,0,0,0,14.33,31.54l10.84,12A19.15,19.15,0,0,1,73.87,207.59Zm.07.85a20,20,0,0,1-2.53,2.67,19.21,19.21,0,0,0,2.89,1.73,19.8,19.8,0,0,0,2.57-2.17A20.06,20.06,0,0,1,73.94,208.44Zm3.33,1.81a19.49,19.49,0,0,1-3-2.26,20,20,0,0,0,2.18-3.71l.62.68a19.93,19.93,0,0,0,2.47,2.32A18.94,18.94,0,0,1,77.27,210.25Zm.1.73a19.47,19.47,0,0,1-2.48,2.13,20.55,20.55,0,0,0,2.91,1,19.59,19.59,0,0,0,2.53-1.75A20.56,20.56,0,0,1,77.37,211Zm3.46,1a19.61,19.61,0,0,1-3-1.42A20.55,20.55,0,0,0,80,207.63a19.13,19.13,0,0,0,3.14,1.92A19.73,19.73,0,0,1,80.83,212Zm2.69-2.89a19.22,19.22,0,0,0,2-3.19,19.93,19.93,0,0,1-2.7-2l-.68-.62a20.94,20.94,0,0,1-1.78,3.91A18.45,18.45,0,0,0,83.52,209.08Zm-3.66-2.29a19.47,19.47,0,0,0,1.77-4l-3.7-3.33a19.87,19.87,0,0,1-1.21,4.22l.79.88A18.78,18.78,0,0,0,79.86,206.79Zm-3.57-3.56a19.16,19.16,0,0,0,1.14-4.2L69.59,192a57.4,57.4,0,0,1-17.88-31.39l-.23-.1a56.87,56.87,0,0,0,14.15,30.91ZM51.4,159.82l.18.08c0-.26-.09-.51-.14-.76l-.12-.08C51.35,159.31,51.38,159.57,51.4,159.82Zm-.15-1.48.07,0c0-.21-.07-.42-.1-.63h0C51.22,157.94,51.24,158.14,51.25,158.34Zm.85,1.25.12.59.06,0-.16-.61Zm.39,1.36-.13-.07A56.78,56.78,0,0,0,70,191.54l7.55,6.8a20.54,20.54,0,0,0,.13-2.23v-1.73L74,191.7A57.37,57.37,0,0,1,52.49,161Zm25.16,32.72-3.35-2.43a56.8,56.8,0,0,1-21.11-29.91h0a57.35,57.35,0,0,0,24.44,29.27Zm.57,1.12v1.32a20.18,20.18,0,0,1-.18,2.7l3.77,3.39a19.11,19.11,0,0,0,.69-4.3Zm4.3,2.42-4.3-3.12v-3.15l.07,0,3.94,2.28.18,1.72A20.94,20.94,0,0,1,82.52,197.21Zm.53,1.09a20,20,0,0,1-.77,4.33l.88.79a19.76,19.76,0,0,0,2.57,2,19.26,19.26,0,0,0,1.34-4.14Zm4.14,2.3-4.11-3a18.86,18.86,0,0,0-.1-2.7l-.14-1.31,4.58,2.65A19,19,0,0,1,87.19,200.6Zm.18-5a18.75,18.75,0,0,0-.34-2.21l-.36-1.69-4.16-1.86-.07,0,.33,3.13Zm-5.21-3-.32-3.05c-1.24-.57-2.44-1.18-3.62-1.82v2.59l.35.21Zm-4.51-2.62v-2.57a57.37,57.37,0,0,1-23.26-24.58A56.81,56.81,0,0,0,77.65,189.94ZM55.8,164.28a56.78,56.78,0,0,0,21.85,22.43v-2.27A57.37,57.37,0,0,1,55.8,164.28Zm22.42,20.46V187c1.16.65,2.34,1.25,3.55,1.82l-.27-2.56C80.39,185.8,79.29,185.29,78.22,184.74Zm3.21.89q-1.64-.72-3.21-1.53v-2c1,.45,2,.88,3,1.28Zm.67.91.27,2.58.37.17L86.52,191l-.63-3C84.6,187.54,83.34,187.06,82.1,186.54Zm3.65.79q-1.89-.66-3.72-1.44l-.24-2.28q1.69.66,3.42,1.2Zm-.67-3.16L84.61,182c-1-.29-2.08-.61-3.09-1l.2,2C82.83,183.41,83.94,183.8,85.08,184.17Zm-4-1.43-.2-2c-.91-.33-1.81-.67-2.7-1v1.73C79.17,181.92,80.14,182.34,81.12,182.74Zm-3.47-1.55V179.5A57.38,57.38,0,0,1,59,166.76,56.8,56.8,0,0,0,77.65,181.19ZM60.83,167.73a56.71,56.71,0,0,0,16.82,11.15v-.53c0-.3,0-.6,0-.9A57.47,57.47,0,0,1,60.83,167.73Zm17.4,9.92c0,.23,0,.47,0,.7v.77c.87.36,1.74.71,2.63,1l-.18-1.69C79.85,178.21,79,177.94,78.23,177.65Zm2.38.19q-1.19-.36-2.34-.78a17.46,17.46,0,0,1,4.51-10.5,18.1,18.1,0,0,0-2.23,10.76Zm.66.8.18,1.72c1,.35,2,.66,3,1l-.41-1.93Q82.65,179,81.27,178.64Zm2.66.13c-.92-.23-1.82-.47-2.73-.74l-.08-.77a17.56,17.56,0,0,1,3.3-12.2A18.1,18.1,0,0,0,83.34,176Zm.62.15c1,.24,2.06.45,3.1.64L86,174.38a18.09,18.09,0,0,1-.07-11,17.54,17.54,0,0,0-2,12.48Zm-.47-43.14a56.76,56.76,0,0,0-23.2-13.62v3.21a18.11,18.11,0,0,1-5.3,12.8l-.25.25c-.29.43-.6.84-.92,1.25l-.22.27c-.25.46-.51.9-.79,1.34-.07.1-.13.2-.19.3-.2.47-.41.94-.65,1.41l-.15.31c-.15.49-.31,1-.5,1.47l-.12.33c-.09.5-.21,1-.34,1.51l-.09.34c0,.52-.1,1-.18,1.54,0,.12,0,.23,0,.35,0,.52,0,1,0,1.55,0,.12,0,.23,0,.35.07.51.12,1,.15,1.55,0,.11,0,.23,0,.34a15.34,15.34,0,0,1,.31,1.53l.06.34c.18.48.33,1,.47,1.48l.09.34c.22.46.43.94.62,1.43l.12.32c.28.44.53.89.77,1.35l.15.31c.32.41.62.83.91,1.27l.19.29c.36.37.7.76,1,1.17l.21.26c.4.34.78.69,1.15,1.06a56.92,56.92,0,0,0,20.37,13.07A18.09,18.09,0,0,1,83,165.55c.72-.72,1.42-1.46,2.09-2.21.45-.57.88-1.14,1.3-1.72s.75-1.22,1.1-1.84.63-1.3.92-2,.48-1.36.7-2,.34-1.39.49-2.09.19-1.43.26-2.14,0-1.45,0-2.17-.11-1.44-.19-2.16-.26-1.42-.41-2.12-.4-1.37-.62-2-.55-1.33-.84-2-.69-1.28-1.06-1.91-.81-1.18-1.23-1.76S84.56,136.31,84.08,135.78ZM57.35,165.6a56.89,56.89,0,0,0,20.3,18.2v-2A57.46,57.46,0,0,1,57.35,165.6Zm24.51-33.54a56.82,56.82,0,0,0-21-16.23v1.74A57.49,57.49,0,0,1,81.86,132.06ZM81,212.62a21.41,21.41,0,0,0,2.83.74,19.22,19.22,0,0,1-2.43,1.37,18.36,18.36,0,0,1-2.76-.4A20.3,20.3,0,0,0,81,212.62ZM23.05,106.38a19.14,19.14,0,0,0-2.72,1.06,18.19,18.19,0,0,1,1.16-2.55A19.2,19.2,0,0,1,24,103.6,20,20,0,0,0,23.05,106.38Zm109.46,64.71c-.21.36-.44.71-.67,1.06,0,.41-.09.83-.15,1.25A19.74,19.74,0,0,0,132.51,171.09Zm-1.83,4.35q.13-.51.24-1c.1-.44.17-.88.24-1.31a23.46,23.46,0,0,1-1.59,1.85,20.17,20.17,0,0,1-.18,2.44A19.48,19.48,0,0,0,130.68,175.44Zm-2,2.87a18.64,18.64,0,0,0,.32-2.78,20,20,0,0,1-2.26,1.85,20.33,20.33,0,0,1,0,2.92A19.2,19.2,0,0,0,128.66,178.31Zm-2,2.81a21.45,21.45,0,0,0,1.77-1.67c-.11.43-.23.85-.37,1.28s-.22.66-.35,1a18.52,18.52,0,0,1-1.48,1.81A22.13,22.13,0,0,0,126.64,181.12Zm-.55-.29a19.75,19.75,0,0,0,.08-3.07,20.61,20.61,0,0,1-2.89,1.56,19.65,19.65,0,0,1,.28,3.26A19.29,19.29,0,0,0,126.09,180.83Zm-2.54,2.41a20.91,20.91,0,0,0,2.44-1.6,18.65,18.65,0,0,1-.6,2.72,18.3,18.3,0,0,1-2.15,1.78A18.9,18.9,0,0,0,123.55,183.24Zm-.57-.34a18.69,18.69,0,0,0-.24-3.35,19.86,19.86,0,0,1-3.52,1,20.25,20.25,0,0,1,.67,3.62A19.67,19.67,0,0,0,123,182.9Zm-3,1.91a20.15,20.15,0,0,0,3-1.26,19.73,19.73,0,0,1-.39,3,19.68,19.68,0,0,1-2.71,1.47A18.69,18.69,0,0,0,119.93,184.81Zm-.6-.42a19.24,19.24,0,0,0-.68-3.68,20.71,20.71,0,0,1-3.37.28h-.93a19.94,19.94,0,0,1,1.3,4.1A18.84,18.84,0,0,0,119.33,184.39Zm-3.58,1.27a20.66,20.66,0,0,0,3.62-.68,19.76,19.76,0,0,1-.11,3.35,18.75,18.75,0,0,1-3.22,1A19.57,19.57,0,0,0,115.75,185.66Zm-.68-.52a19.35,19.35,0,0,0-1.35-4.15h-5a19.2,19.2,0,0,1,1.92,3.95l1.19.12A19.21,19.21,0,0,0,115.07,185.14Zm-4.2.4.93.09a20.16,20.16,0,0,0,3.38.07,19.58,19.58,0,0,1,.29,3.74,19.3,19.3,0,0,1-3.73.31A19.7,19.7,0,0,0,110.87,185.54Zm-.83-.67a19.41,19.41,0,0,0-2-3.88h-5.29l.77,1.07a18.94,18.94,0,0,1,1.44,2.28Zm-4.73.08,4.94.52a19,19,0,0,1,.91,4.26,18.46,18.46,0,0,1-3.19-.41l-1.17-.24A19.64,19.64,0,0,0,105.31,185Zm-1-.68a20,20,0,0,0-1.21-1.88l-1-1.4H97.44L99,183.71Zm-4.93.06,5.26.55a19.28,19.28,0,0,1,1.55,4.06l-5-1.05a22.7,22.7,0,0,0-1.19-2.43Zm-1.06-.69L96.78,181c-1.36,0-2.7-.09-4-.2l1.06,2.37.41.05Zm-4.25.13h.08l4.52.47.87,1.5a18.51,18.51,0,0,1,1,2l-5.19-1.1Zm1.56,3.52.54,1.2a20.28,20.28,0,0,1,.93,2.53l4.83,1.57a19,19,0,0,0-1.12-4.2Zm5.85,1.24a20,20,0,0,1,1,4.26l1.13.37a20.71,20.71,0,0,0,3.14.74,19.29,19.29,0,0,0-.46-4.34Zm5.47,1.16a19.36,19.36,0,0,1,.42,4.28,18.76,18.76,0,0,0,3.74.08,19.47,19.47,0,0,0,.11-3.74,20.47,20.47,0,0,1-3.36-.43Zm4.84.63a19.67,19.67,0,0,1-.1,3.68,19.38,19.38,0,0,0,3.31-.65,19.76,19.76,0,0,0,.46-3.33A19.48,19.48,0,0,1,111.78,190.32Zm4.24-.41a19.9,19.9,0,0,1-.4,3.25,19.14,19.14,0,0,0,2.84-1.19,18.3,18.3,0,0,0,.71-3A19,19,0,0,1,116,189.91Zm3.77-1.18a21.73,21.73,0,0,1-.61,2.86A19.93,19.93,0,0,0,121.5,190a19.64,19.64,0,0,0,.89-2.65A20.62,20.62,0,0,1,119.79,188.73Zm3.29-1.78a20.2,20.2,0,0,1-.68,2.35,18.56,18.56,0,0,0,1.67-1.65c.16-.31.31-.62.45-1s.35-.81.5-1.23A19.87,19.87,0,0,1,123.08,187Zm2.81-2.28c-.12.4-.26.8-.41,1.2a20.13,20.13,0,0,0,1.28-2.09C126.48,184.09,126.19,184.38,125.89,184.67Zm-3,4.93c-.32.28-.64.54-1,.8-.17.39-.35.77-.54,1.15A18,18,0,0,0,122.93,189.6Zm-3.09,3.58c.19-.3.37-.59.55-.9s.43-.78.63-1.17a21.06,21.06,0,0,1-2.09,1.26,19.26,19.26,0,0,1-.92,2.27A21.28,21.28,0,0,0,119.84,193.18ZM117,195.29a18.19,18.19,0,0,0,1.16-2.55,19.14,19.14,0,0,1-2.72,1.06,20,20,0,0,1-.9,2.78A19.2,19.2,0,0,0,117,195.29Zm-2.79,2a20.07,20.07,0,0,0,2.2-1c-.23.38-.48.74-.74,1.1s-.42.57-.64.84a22.92,22.92,0,0,1-2,1.27A19.74,19.74,0,0,0,114.24,197.33Zm-.43-.44a19.61,19.61,0,0,0,1-2.9,20.51,20.51,0,0,1-3.22.59,20.8,20.8,0,0,1-.75,3.19A20,20,0,0,0,113.81,196.89Zm-3.16,1.5a18.69,18.69,0,0,0,2.82-.77,19.51,19.51,0,0,1-1.42,2.41,19.13,19.13,0,0,1-2.59,1A20.5,20.5,0,0,0,110.65,198.39Zm-.43-.5a19.16,19.16,0,0,0,.8-3.26,19.61,19.61,0,0,1-3.67-.08,20.29,20.29,0,0,1-.49,3.64A18.91,18.91,0,0,0,110.22,197.89Zm-3.5.87a19.76,19.76,0,0,0,3.27-.25,20.08,20.08,0,0,1-1.31,2.78,18.37,18.37,0,0,1-3,.56A19.81,19.81,0,0,0,106.72,198.76Zm-.44-.58a20.07,20.07,0,0,0,.5-3.71,20.23,20.23,0,0,1-3.3-.77l-.88-.29a19.93,19.93,0,0,1,0,4.3A18.94,18.94,0,0,0,106.28,198.18Zm-3.79.1a18.91,18.91,0,0,0,3.65.47,19.87,19.87,0,0,1-1.14,3.16,19,19,0,0,1-3.37,0A20.75,20.75,0,0,0,102.49,198.28Zm-.49-.7a18.7,18.7,0,0,0,0-4.36l-4.73-1.54a19.74,19.74,0,0,1,.61,4.35l1.08.48A19.65,19.65,0,0,0,102,197.58Zm-4.11-.92.84.38a20.23,20.23,0,0,0,3.2,1.11,19.71,19.71,0,0,1-.88,3.64,18.78,18.78,0,0,1-3.65-.86A19.62,19.62,0,0,0,97.89,196.66Zm-.62,4.83A19.34,19.34,0,0,1,96,205a19,19,0,0,0,3.34.4,18.72,18.72,0,0,0,1.47-3A19.6,19.6,0,0,1,97.27,201.49Zm4.16.92a19.45,19.45,0,0,1-1.39,3,19.65,19.65,0,0,0,3.07-.24,19.23,19.23,0,0,0,1.6-2.63A20,20,0,0,1,101.43,202.41Zm3.94.05a19.86,19.86,0,0,1-1.46,2.52,17.76,17.76,0,0,0,2.68-.75,19.73,19.73,0,0,0,1.67-2.24A21.75,21.75,0,0,1,105.37,202.46Zm3.68-.68a20.5,20.5,0,0,1-1.37,2,17.75,17.75,0,0,0,2.09-1.05c.25-.24.49-.5.73-.76s.58-.67.85-1A18.44,18.44,0,0,1,109.05,201.78Zm3.38-1.3c-.24.35-.5.68-.76,1a20.13,20.13,0,0,0,1.86-1.6C113.17,200.1,112.8,200.3,112.43,200.48Zm-4.35,3.77c-.38.17-.76.33-1.15.47q-.42.47-.87.93A18.64,18.64,0,0,0,108.08,204.25Zm-4,2.45c.27-.22.54-.45.8-.69s.65-.6,1-.92a19,19,0,0,1-2.37.56,18.61,18.61,0,0,1-1.58,1.87A19.4,19.4,0,0,0,104.05,206.7Zm-3.32,1.14a19.22,19.22,0,0,0,1.89-2.06,20.34,20.34,0,0,1-2.92.16A19.67,19.67,0,0,1,98,208.3,19.59,19.59,0,0,0,100.73,207.84Zm-3.29,1.08a19.77,19.77,0,0,0,2.42-.31c-.34.28-.69.56-1,.82s-.58.4-.87.59a17.63,17.63,0,0,1-2.27.6A20.36,20.36,0,0,0,97.44,208.92Zm-.27-.56A18.35,18.35,0,0,0,99,205.92a19.82,19.82,0,0,1-3.25-.43,21.1,21.1,0,0,1-1.7,2.8A19.84,19.84,0,0,0,97.17,208.36Zm-3.47.46a20.33,20.33,0,0,0,2.92.14,19.56,19.56,0,0,1-2.1,1.85,21.51,21.51,0,0,1-2.78.18A21.1,21.1,0,0,0,93.7,208.82Zm-2.56,2.72a20.53,20.53,0,0,1-1.94,1.51,18.33,18.33,0,0,0,2.32-.36c.31-.16.62-.32.93-.5s.76-.46,1.12-.7A19.71,19.71,0,0,1,91.14,211.54Zm3.61-.19c-.34.26-.68.5-1,.73a19.39,19.39,0,0,0,2.27-.94C95.57,211.22,95.16,211.3,94.75,211.35Zm-5.3,2.25c-.41,0-.83.07-1.25.08-.36.22-.72.42-1.1.62A19.76,19.76,0,0,0,89.45,213.6Zm10.61-4.41c.33-.27.64-.55,1-.83.4-.11.8-.22,1.2-.35A21.5,21.5,0,0,1,100.06,209.19Zm16.75-12.41c.23-.36.45-.72.65-1.09.35-.22.7-.45,1-.7A18,18,0,0,1,116.81,196.78Zm12.1-17c.11-.41.2-.82.28-1.23.27-.32.53-.65.77-1A17.34,17.34,0,0,1,128.91,179.8ZM68.84,216.73c-.41-.09-.81-.19-1.21-.3-.41.09-.83.17-1.25.24A20.11,20.11,0,0,0,68.84,216.73Zm-4.71-.4c.35,0,.7,0,1.05-.08s.89-.11,1.32-.18a20.15,20.15,0,0,1-2.25-.94,18.78,18.78,0,0,1-2.38.58A18,18,0,0,0,64.13,216.33Zm-3.35-1a19,19,0,0,0,2.74-.55,19.87,19.87,0,0,1-9.43-11.35l-5.48-16.88a57.3,57.3,0,0,1-2-27.35c-.28,0-.56-.06-.84-.08a56.75,56.75,0,0,0-.3,24.95l3.69,17.37A19.33,19.33,0,0,0,60.78,215.3ZM45.19,159.06a57.27,57.27,0,0,0-.28,25.1l3.69,17.37a19.93,19.93,0,0,0,11,13.89c-.44,0-.88,0-1.33,0l-1,0A19.38,19.38,0,0,1,43.91,199l-1.86-17.66A56.9,56.9,0,0,1,44.16,159h.38Zm.72-.54.8.08c.09-.51.19-1,.29-1.53l-.66-.18C46.19,157.43,46,158,45.91,158.52Zm-.13-1.77q-.24.87-.45,1.74l-.79,0h-.21q.3-.94.63-1.89Zm.72-.41.62.17c.1-.44.2-.88.31-1.32l-.51-.25C46.78,155.4,46.63,155.87,46.5,156.34Zm-.1-1.63c-.16.49-.31,1-.46,1.49l-.79-.16c.2-.53.4-1.06.61-1.59Zm.7-.32.47.23c.1-.39.2-.77.31-1.16l-.37-.26C47.37,153.6,47.23,154,47.1,154.39ZM47,152.88c-.15.42-.3.85-.44,1.28l-.61-.24c.18-.45.37-.89.57-1.34Zm.69-.23.33.23.3-1-.25-.25C48,152,47.83,152.31,47.71,152.65Zm-.07-1.44-.42,1.12-.45-.28.53-1.14Zm.68-.15.22.2c.09-.28.18-.57.28-.86l-.15-.2Zm0-1.38c-.14.32-.27.64-.4,1l-.31-.27c.16-.32.32-.65.49-1Zm-.62-.73-.31-.34c-.22.36-.44.72-.65,1.08l.42.32C47.28,149.65,47.46,149.3,47.65,149Zm-.8,1.59-.45-.35c-.24.42-.47.85-.7,1.28l.57.3C46.46,151.36,46.65,151,46.85,150.54ZM46,152.29l-.61-.32-.77,1.51.77.25C45.63,153.25,45.83,152.77,46,152.29Zm-.82,2-.81-.25c-.28.6-.56,1.2-.82,1.81l.21,0,.78.1C44.78,155.38,45,154.82,45.22,154.26Zm-.84,2.23-.64-.08-.38,0q-.44,1-.84,2.1h1.21C43.94,157.81,44.16,157.15,44.38,156.49ZM43.56,159H42.31a57,57,0,0,0-3.38,19.31v17.76A19.36,19.36,0,0,0,55,215.18a19.91,19.91,0,0,1-11.65-16.1l-1.85-17.65A57.39,57.39,0,0,1,43.56,159Zm-1.65-.57c.27-.72.56-1.45.85-2.16l-20.2-2.12A19.94,19.94,0,0,1,4.73,133.43a19.39,19.39,0,0,0,18.51,25ZM5.53,131.3c-.06.35-.1.69-.14,1a19.37,19.37,0,0,0,17.23,21.28L43,155.76c.27-.64.55-1.28.85-1.9q-.32-.09-.63-.15l-20.83-4.43A19.92,19.92,0,0,1,6.61,129.22,19.49,19.49,0,0,0,5.53,131.3Zm1.7-3.07A19.37,19.37,0,0,0,22.5,148.72l20.83,4.43c.26,0,.52.11.77.18.26-.54.53-1.08.81-1.61A16.06,16.06,0,0,0,43,151l-20.25-6.58A19.93,19.93,0,0,1,9,126.05,20.18,20.18,0,0,0,7.23,128.23Zm1.72-3a23.31,23.31,0,0,0-1.59,1.84c.07-.43.14-.87.24-1.31s.15-.68.24-1a19.48,19.48,0,0,1,1.29-2A20.34,20.34,0,0,0,9,125.23Zm.57.23A19.36,19.36,0,0,0,22.9,143.84l20.26,6.58a17.67,17.67,0,0,1,2,.8l.76-1.37A18,18,0,0,0,43,148.21l-19.45-8.66a19.92,19.92,0,0,1-11.72-16.09A19.31,19.31,0,0,0,9.52,125.46Zm2.29-2.67a20.43,20.43,0,0,0-2.27,1.86,18.79,18.79,0,0,1,.32-2.78,18.32,18.32,0,0,1,2-2A17.67,17.67,0,0,0,11.81,122.79Zm.59.29a19.37,19.37,0,0,0,11.41,16l19.46,8.66a18.54,18.54,0,0,1,2.95,1.67c.23-.39.47-.78.71-1.17a17.9,17.9,0,0,0-3.56-2.71L24.93,134.84a19.9,19.9,0,0,1-9.59-13.4A19.2,19.2,0,0,0,12.4,123.08Zm2.84-2.22a20.61,20.61,0,0,0-2.89,1.56,19.75,19.75,0,0,1,.08-3.07A19.29,19.29,0,0,1,15,117.6,20.79,20.79,0,0,0,15.24,120.86ZM15,116.94a18.9,18.9,0,0,1,.31-2.9,20.21,20.21,0,0,0-2.15,1.77,19.07,19.07,0,0,0-.6,2.73A19.7,19.7,0,0,1,15,116.94Zm-3.09,2.12a20.52,20.52,0,0,1,.44-2.42,20,20,0,0,0-1.49,1.82c-.13.33-.25.66-.35,1s-.26.85-.37,1.28A21.45,21.45,0,0,1,11.88,119.06Zm-2.56,2.56c.08-.42.18-.83.29-1.24a18.86,18.86,0,0,0-1.06,2.22C8.8,122.26,9.06,121.93,9.32,121.62Zm2.44-5.22q.42-.47.87-.9c.12-.4.26-.8.41-1.2A20.27,20.27,0,0,0,11.76,116.4Zm2.7-3.88c-.16.31-.31.63-.46,1s-.35.82-.5,1.24a19.5,19.5,0,0,1,1.94-1.48,22.54,22.54,0,0,1,.68-2.36A21.54,21.54,0,0,0,14.46,112.52Zm2.1-2.75c.16-.38.34-.77.53-1.14a20.34,20.34,0,0,0-1.49,1.94C15.91,110.3,16.23,110,16.56,109.77Zm-9.73,17q-.11.63-.15,1.26c-.24.34-.46.7-.67,1.06A19.9,19.9,0,0,1,6.83,126.78ZM59.44,216c.43,0,.85-.06,1.26-.11.39.16.78.3,1.18.43A19.61,19.61,0,0,1,59.44,216Zm-29-120.07c.38-.17.77-.32,1.16-.47l.86-.93A20.83,20.83,0,0,0,30.43,95.93Zm4-2.45-.8.68q-.49.45-1,.93a17.87,17.87,0,0,1,2.38-.56,19.91,19.91,0,0,1,1.58-1.88A19.46,19.46,0,0,0,34.47,93.48Zm3-1.66c.31-.28.63-.56,1-.83a17.47,17.47,0,0,0-2.16,1.18C36.7,92,37.11,91.92,37.51,91.82Zm.28.52A20.32,20.32,0,0,0,35.9,94.4a20.34,20.34,0,0,1,2.92-.16,18,18,0,0,1,1.72-2.36A19.73,19.73,0,0,0,37.79,92.34Zm3.56-.52a18.28,18.28,0,0,0-1.86,2.44,20.11,20.11,0,0,1,3.25.43,20,20,0,0,1,1.69-2.8A18.62,18.62,0,0,0,41.35,91.82Zm3.73.15a20.49,20.49,0,0,0-1.77,2.85A20.16,20.16,0,0,1,46.78,96a20.59,20.59,0,0,1,1.58-3.32A18.55,18.55,0,0,0,45.08,92Zm3.84.94a19.09,19.09,0,0,0-1.62,3.38A20.59,20.59,0,0,1,50.19,98l.76.55a19.17,19.17,0,0,1,1.36-4.08A19.73,19.73,0,0,0,48.92,92.91Zm3.88,1.9A19.19,19.19,0,0,0,51.45,99l4,2.92a19.35,19.35,0,0,1,.76-4.32l-.88-.8A20.37,20.37,0,0,0,52.8,94.81ZM56.72,98a19.11,19.11,0,0,0-.69,4.3l4.28,3.11v-1.32a19.92,19.92,0,0,1,.18-2.69Zm-.9-13.16c.42,0,.84,0,1.25,0,.38-.17.77-.34,1.17-.49A16.88,16.88,0,0,0,55.82,84.82Z" transform="translate(-3.31 -82.86)" style="fill:#fff;fill-rule:evenodd"/></svg>