<svg id="Layer_1" data-name="Layer 1" xmlns="http://www.w3.org/2000/svg" viewBox="0 0 495.58 115.73"><title>light-3</title><path d="M144,176.13h32.85v-9.35H154V123.1H144Z" transform="translate(-2.13 -92.23)" style="fill:#fff"/><path d="M196.59,177.23a20.37,20.37,0,0,0,10.49-2.65,18.82,18.82,0,0,0,7.11-7.4,24.53,24.53,0,0,0,0-21.8,18.7,18.7,0,0,0-7.1-7.44,21.94,21.94,0,0,0-21,0,18.67,18.67,0,0,0-7.1,7.4,22.41,22.41,0,0,0-2.58,10.93,23,23,0,0,0,2.5,10.9,18.79,18.79,0,0,0,7.07,7.4A20.18,20.18,0,0,0,196.59,177.23Zm0-9.35a8.44,8.44,0,0,1-7.11-3.13q-2.4-3.17-2.4-8.51a14.14,14.14,0,0,1,2.29-8.39q2.31-3.24,7.22-3.24,4.74,0,7.14,3.16a13.59,13.59,0,0,1,2.43,8.47,13.92,13.92,0,0,1-2.39,8.4Q201.4,167.88,196.59,167.88Z" transform="translate(-2.13 -92.23)" style="fill:#fff"/><path d="M236.57,177.23a19.13,19.13,0,0,0,5.16-.66,16.48,16.48,0,0,0,4.34-1.88v4a5.29,5.29,0,0,1-1.14,3.68,7,7,0,0,1-3.17,2.24,11.44,11.44,0,0,1-4.23.78,8.49,8.49,0,0,1-3.9-.92,6.44,6.44,0,0,1-2.73-2.69l-9.28,4.49a16.92,16.92,0,0,0,6.52,6.22,18.56,18.56,0,0,0,9.31,2.4,27.19,27.19,0,0,0,8.14-1.18,16.21,16.21,0,0,0,6.34-3.5,12,12,0,0,0,3.57-6,15.42,15.42,0,0,0,.44-2.62,23.81,23.81,0,0,0,.15-2.76V136.36h-8.77v2.21a14.78,14.78,0,0,0-4.6-2.43,17,17,0,0,0-5.63-.88,18,18,0,0,0-10,2.72,18.44,18.44,0,0,0-6.59,7.48,26.22,26.22,0,0,0,0,21.5,18.61,18.61,0,0,0,6.44,7.51A16.87,16.87,0,0,0,236.57,177.23Zm1.62-8.91a8.31,8.31,0,0,1-5.3-1.62,9.57,9.57,0,0,1-3.06-4.34,18,18,0,0,1-1-6.12,16.81,16.81,0,0,1,1-6,9.49,9.49,0,0,1,3.17-4.39,8.86,8.86,0,0,1,5.52-1.65c3.14,0,5.39,1.11,6.74,3.35a19.76,19.76,0,0,1,0,17.49Q243.24,168.33,238.19,168.32Z" transform="translate(-2.13 -92.23)" style="fill:#fff"/><path d="M279.88,177.23a20.37,20.37,0,0,0,10.49-2.65,18.82,18.82,0,0,0,7.11-7.4,24.53,24.53,0,0,0,0-21.8,18.7,18.7,0,0,0-7.1-7.44,21.92,21.92,0,0,0-21,0,18.7,18.7,0,0,0-7.11,7.4,22.41,22.41,0,0,0-2.58,10.93,23.12,23.12,0,0,0,2.5,10.9,18.86,18.86,0,0,0,7.07,7.4A20.18,20.18,0,0,0,279.88,177.23Zm0-9.35a8.44,8.44,0,0,1-7.11-3.13c-1.6-2.11-2.39-4.95-2.39-8.51a14.14,14.14,0,0,1,2.28-8.39c1.55-2.16,3.95-3.24,7.22-3.24s5.54,1,7.14,3.16a13.59,13.59,0,0,1,2.43,8.47,13.92,13.92,0,0,1-2.39,8.4C285.49,166.8,283.09,167.88,279.88,167.88Z" transform="translate(-2.13 -92.23)" style="fill:#fff"/><path d="M304.47,130.84h10V122h-10Zm0,45.29h10V136.36h-10Z" transform="translate(-2.13 -92.23)" style="fill:#fff"/><path d="M321,193.8h10.09V174.69a16.56,16.56,0,0,0,4.31,1.88,19.51,19.51,0,0,0,5.19.66,16.84,16.84,0,0,0,9.61-2.76,18.4,18.4,0,0,0,6.41-7.51A24.07,24.07,0,0,0,359,156.24a23.65,23.65,0,0,0-2.36-10.78,17.57,17.57,0,0,0-16.49-10.2,17.34,17.34,0,0,0-5.67.88,14.85,14.85,0,0,0-4.57,2.43v-2.21H321Zm18-25.48c-3.34,0-5.69-1.1-7.07-3.31a19.72,19.72,0,0,1,0-17.49c1.37-2.24,3.62-3.35,6.73-3.35a8.71,8.71,0,0,1,5.49,1.65,9.34,9.34,0,0,1,3.2,4.39,16.81,16.81,0,0,1,1,6,18,18,0,0,1-1,6.12,9.55,9.55,0,0,1-3.05,4.34A8.36,8.36,0,0,1,339,168.32Z" transform="translate(-2.13 -92.23)" style="fill:#fff"/><path d="M377.11,177.23q7.8,0,12.22-3.5a11.59,11.59,0,0,0,4.42-9.61,9.55,9.55,0,0,0-2.87-7.32q-2.83-2.7-9.65-4.46-4.64-1.17-6.92-1.91a8.45,8.45,0,0,1-3-1.44,2.38,2.38,0,0,1-.7-1.73,2.88,2.88,0,0,1,1.66-2.65,8.14,8.14,0,0,1,4.46-.74c3.9.3,6,2,6.4,5L393.38,147a12.18,12.18,0,0,0-5.3-8.58q-4.53-3.21-11.56-3.2-7.23,0-11.53,3.38a11,11,0,0,0-4.31,9.13,9.19,9.19,0,0,0,3,7.22q3,2.63,10.28,4.49c2.87.77,5,1.38,6.33,1.85a5.91,5.91,0,0,1,2.65,1.43,2.84,2.84,0,0,1,.59,1.88,3.46,3.46,0,0,1-1.47,3,7.32,7.32,0,0,1-4.2,1,9,9,0,0,1-5.48-1.59,7.17,7.17,0,0,1-2.77-4.38l-10.23,1.55a14.29,14.29,0,0,0,5.59,9.65Q369.6,177.23,377.11,177.23Z" transform="translate(-2.13 -92.23)" style="fill:#fff"/><path d="M412.22,177.31a18.21,18.21,0,0,0,7.52-1.44,16,16,0,0,0,5.37-3.83v4.09H434V136.36H423.86v20.18a17.31,17.31,0,0,1-.85,6,8.44,8.44,0,0,1-2.1,3.43,6.8,6.8,0,0,1-2.76,1.54,10.43,10.43,0,0,1-2.76.41,7.68,7.68,0,0,1-5-1.44,8.07,8.07,0,0,1-2.5-3.57,15.09,15.09,0,0,1-.92-4.23c-.1-1.43-.15-2.59-.15-3.5V136.36H396.68v22.31c0,.67.05,1.72.15,3.17a25.69,25.69,0,0,0,.85,4.82,17,17,0,0,0,2.32,5.05,12.65,12.65,0,0,0,4.6,4A16,16,0,0,0,412.22,177.31Z" transform="translate(-2.13 -92.23)" style="fill:#fff"/><path d="M439.75,176.13h10.09V152.05a8.05,8.05,0,0,1,1.88-5.56,6.38,6.38,0,0,1,5-2.18,6.31,6.31,0,0,1,5.12,2.21,9.09,9.09,0,0,1,1.88,6.12v23.49h10V152.05a8.1,8.1,0,0,1,1.88-5.56,6.4,6.4,0,0,1,5-2.18,6.29,6.29,0,0,1,5.12,2.21,9.09,9.09,0,0,1,1.88,6.12v23.49h10V150q0-6.51-3.5-10.53t-10.28-4a15,15,0,0,0-7,1.66,13.45,13.45,0,0,0-5.12,4.53,11.69,11.69,0,0,0-4.42-4.49,13.82,13.82,0,0,0-7.14-1.7,15.22,15.22,0,0,0-6.63,1.44,13.7,13.7,0,0,0-5,3.86v-4.34h-8.84Z" transform="translate(-2.13 -92.23)" style="fill:#fff"/><path d="M60,92.23A57.86,57.86,0,0,0,2.13,150.09,57.86,57.86,0,0,0,60,92.23Z" transform="translate(-2.13 -92.23)" style="fill:#fff"/><path d="M60,208a57.86,57.86,0,0,0,57.87-57.86A57.87,57.87,0,0,0,60,208Z" transform="translate(-2.13 -92.23)" style="fill:#fff"/><path d="M60,92.23a57.86,57.86,0,0,1,57.87,57.86A57.87,57.87,0,0,1,60,92.23Z" transform="translate(-2.13 -92.23)" style="fill:#fff"/><path d="M60,208A57.86,57.86,0,0,1,2.13,150.09,57.86,57.86,0,0,1,60,208Z" transform="translate(-2.13 -92.23)" style="fill:#fff"/></svg>