<svg id="Capa_1" enable-background="new 0 0 504 504" height="512" viewBox="0 0 504 504" width="512" xmlns="http://www.w3.org/2000/svg"><g><g fill="#e94d4e"><path d="m172.621 194.802c-1.085 4.499.387 9.23 3.832 12.32 2.11 1.49 4.319 2.836 6.609 4.029v-29.694c-5.403 2.535-9.28 7.49-10.441 13.345z"/><path d="m207.559 246.607-.496-.167v43.157c8.663-3.37 14.968-10.978 16.672-20.115 1.742-10.759-5.452-20.932-16.176-22.875z"/><path d="m196 111.993c-68.483 0-124 55.517-124 124s55.517 124 124 124 124-55.517 124-124c-.077-68.451-55.548-123.923-124-124zm51.449 161.196c-3.657 20.816-19.677 37.274-40.387 41.491v9.314c0 6.627-5.373 12-12 12s-12-5.373-12-12v-8.294c-11.89-.707-23.377-4.567-33.281-11.183-5.667-3.435-7.478-10.813-4.043-16.48s10.813-7.478 16.48-4.043c6.182 4.283 13.358 6.91 20.844 7.633v-53.973c-7.308-2.898-14.259-6.627-20.715-11.114-11.027-8.412-16.223-22.424-13.348-35.992 3.085-17.437 16.655-31.136 34.062-34.386v-8.169c0-6.627 5.373-12 12-12s12 5.373 12 12v7.333c9.511 1.464 18.499 5.303 26.133 11.163 5.019 4.328 5.579 11.906 1.25 16.924-4.266 4.947-11.706 5.572-16.738 1.408-3.217-2.285-6.825-3.965-10.645-4.957v41.251c2.672.925 5.345 1.829 7.965 2.686 21.929 5.637 35.971 27.027 32.423 49.388z"/></g><path d="m476 175.995h-84v-163.996c-.013-6.633-5.402-12-12.035-11.986-3.257.007-6.371 1.335-8.629 3.682l-52.695 54.964-52.703-54.965c-4.81-4.721-12.516-4.72-17.324.004l-52.656 54.956-52.676-54.96c-4.812-4.721-12.518-4.72-17.328.004l-52.653 54.952-52.633-54.952c-4.598-4.781-12.202-4.929-16.983-.331-2.348 2.259-3.678 5.374-3.685 8.632v423.99c.042 37.538 30.462 67.957 68 67.998h368c37.537-.043 67.956-30.461 68-67.998v-231.995c-.019-15.456-12.544-27.98-28-27.999zm-452 259.994v-394.116l40.633 42.425c4.587 4.786 12.185 4.948 16.971.361.123-.118.243-.238.361-.361l52.652-54.956 52.676 54.96c4.812 4.721 12.518 4.72 17.328-.004l52.66-54.956 52.695 54.96c4.812 4.719 12.516 4.719 17.328 0l40.696-42.448v394.135c-.004 16.135 5.759 31.74 16.249 43.999h-316.249c-24.289-.027-43.972-19.71-44-43.999zm456 0c0 24.301-19.699 44-44 44s-44-19.699-44-44v-235.995h84c2.208.003 3.997 1.792 4 4z"/><path d="m324 383.993h-256c-6.627 0-12 5.373-12 12s5.373 12 12 12h256c6.627 0 12-5.373 12-12s-5.373-12-12-12z"/><path d="m324 431.993h-256c-6.627 0-12 5.373-12 12s5.373 12 12 12h256c6.627 0 12-5.373 12-12s-5.373-12-12-12z"/></g></svg>