<?xml version="1.0" encoding="UTF-8"?>
<svg xmlns="http://www.w3.org/2000/svg" id="artwork" width="512" height="512" viewBox="0 0 64 64"><path d="M58,31.5H55.5V31a23.39164,23.39164,0,0,0-5.41754-14.991l2.51324-2.51288a3.50351,3.50351,0,0,0-.1084-5.0625,30.41872,30.41872,0,0,0-40.97509.001,3.50185,3.50185,0,0,0-.10742,5.06152l2.51281,2.51282A23.39161,23.39161,0,0,0,8.5,31v.5H6A5.50654,5.50654,0,0,0,.5,37v4A5.50654,5.50654,0,0,0,6,46.5h4A1.50007,1.50007,0,0,0,11.5,45V31a20.5,20.5,0,0,1,41,0V57a.50065.50065,0,0,1-.5.5H38.22357A4.49265,4.49265,0,0,0,34,54.5H30a4.5,4.5,0,0,0,0,9h4a4.49265,4.49265,0,0,0,4.22357-3H52A3.50424,3.50424,0,0,0,55.5,57V46.5H58A5.50654,5.50654,0,0,0,63.5,41V37A5.50654,5.50654,0,0,0,58,31.5ZM8.5,43.5H6A2.50263,2.50263,0,0,1,3.5,41V37A2.50263,2.50263,0,0,1,6,34.5H8.5ZM32,7.5a23.408,23.408,0,0,0-16.02,6.32892L13.52637,11.375a.50168.50168,0,0,1,.0039-.7207,27.41888,27.41888,0,0,1,36.939-.001.50279.50279,0,0,1,.00488.72168l-2.454,2.454A23.40833,23.40833,0,0,0,32,7.5Zm2,53H30a1.5,1.5,0,0,1,0-3h4a1.5,1.5,0,0,1,0,3ZM60.5,41A2.50263,2.50263,0,0,1,58,43.5H55.5v-9H58A2.50263,2.50263,0,0,1,60.5,37Z"/><path d="M32,15.5A16.5,16.5,0,1,0,48.5,32,16.519,16.519,0,0,0,32,15.5ZM30.30273,40.46875c-1.67972.02112-6.87661.10556-7.49072-.09863a1.65746,1.65746,0,0,1-1.01709-1.0293c-.25683-.835.105-1.30957.979-2.4541.69775-.91309,1.99609-2.61328,4.17089-5.72168a5.31229,5.31229,0,0,0,1.25538-2.7334,2.01427,2.01427,0,0,0-3.98829-.30957,1.4998,1.4998,0,1,1-2.94336-.57812,5.01391,5.01391,0,0,1,9.93311.96972,8.89211,8.89211,0,0,1-1.79883,4.37207c-1.48047,2.11524-2.563,3.59082-3.33008,4.61426,1.23975-.002,2.76075-.0127,4.1919-.03125h.01953a1.50006,1.50006,0,0,1,.01855,3Zm10.957-4.15625h-.26612c-.00879,1.15625-.0166,2.08789-.02051,2.56543a1.50012,1.50012,0,0,1-1.49951,1.4873h-.01318a1.49982,1.49982,0,0,1-1.48731-1.51269c.00684-.77734.01368-1.64063.02-2.54H32.63672a1.501,1.501,0,0,1-1.31348-2.22461c1.08643-1.96875,4.69141-8.4668,5.46924-9.42187a2.29461,2.29461,0,0,1,4.21,1.29492c.041.49023.03076,4.0459.01123,7.35156h.2461a1.5,1.5,0,0,1,0,3Z" style="fill:#3e3ef4"/><path d="M38.01318,33.3125c.01075-1.86426.01807-3.66211.01807-4.98828-.75879,1.28906-1.791,3.10156-2.8457,4.98828Z" style="fill:#3e3ef4"/></svg>
