<?xml version="1.0" encoding="UTF-8"?>
<svg xmlns="http://www.w3.org/2000/svg" id="Icon" width="512" height="512" viewBox="0 0 64 64"><path d="M59,8.5H49.53662a1.5,1.5,0,0,0,0,3H59A1.50164,1.50164,0,0,1,60.5,13V25.5H52A1.49977,1.49977,0,0,0,50.5,27V37A1.49977,1.49977,0,0,0,52,38.5h8.5v13H53.18909A21.53923,21.53923,0,0,0,38.82361,34.6286,13.49485,13.49485,0,0,0,45.5,23a1.5,1.5,0,0,0-3,0,10.5,10.5,0,0,1-21,0,1.5,1.5,0,0,0-3,0,13.49485,13.49485,0,0,0,6.67639,11.6286A21.53923,21.53923,0,0,0,10.81091,51.5H3.5v-13H12A1.49977,1.49977,0,0,0,13.5,37V27A1.49977,1.49977,0,0,0,12,25.5H3.5V13A1.50164,1.50164,0,0,1,5,11.5h9.46338a1.5,1.5,0,0,0,0-3H5A4.50491,4.50491,0,0,0,.5,13V59A4.50491,4.50491,0,0,0,5,63.5H59A4.50491,4.50491,0,0,0,63.5,59V13A4.50491,4.50491,0,0,0,59,8.5ZM3.5,28.5h7v7h-7Zm7,32H5A1.50164,1.50164,0,0,1,3.5,59V54.5h7Zm8,0h-5V55a18.37989,18.37989,0,0,1,3.39288-10.6427L18.5,46.5Zm8,0h-5V46a1.50208,1.50208,0,0,0-.2998-.8999l-2.33374-3.11164A18.52012,18.52012,0,0,1,26.5,37.33484Zm8,0h-5V36.68921a16.61065,16.61065,0,0,1,5,0Zm8.2998-15.3999A1.50208,1.50208,0,0,0,42.5,46V60.5h-5V37.33484a18.52012,18.52012,0,0,1,7.63354,4.65362ZM50.5,60.5h-5v-14l1.60712-2.1427A18.37989,18.37989,0,0,1,50.5,55Zm10-1.5A1.50164,1.50164,0,0,1,59,60.5H53.5v-6h7Zm0-23.5h-7v-7h7Z"/><path d="M35.85986,25.31494a4.5017,4.5017,0,0,1-7.71972,0,1.50011,1.50011,0,0,0-2.57129,1.5459,7.51076,7.51076,0,0,0,12.8623,0,1.50011,1.50011,0,0,0-2.57129-1.5459Z"/><path d="M12.5,18A1.49977,1.49977,0,0,0,14,19.5H50a1.5,1.5,0,0,0,0-3H45.5V14a13.5,13.5,0,0,0-27,0v2.5H14A1.49977,1.49977,0,0,0,12.5,18Zm9-4.5h21v3h-21Z" style="fill:#3e3ef4"/></svg>
